<?xml version="1.0" encoding="UTF-8" standalone="no"?>
<svg
   xmlns:dc="http://purl.org/dc/elements/1.1/"
   xmlns:cc="http://creativecommons.org/ns#"
   xmlns:rdf="http://www.w3.org/1999/02/22-rdf-syntax-ns#"
   xmlns:svg="http://www.w3.org/2000/svg"
   xmlns="http://www.w3.org/2000/svg"
   xmlns:sodipodi="http://sodipodi.sourceforge.net/DTD/sodipodi-0.dtd"
   xmlns:inkscape="http://www.inkscape.org/namespaces/inkscape"
   version="1.1"
   viewBox="0 0 629.97636 816.74801"
   stroke-miterlimit="10"
   id="svg261"
   sodipodi:docname="timeseries-rolling-windows.svg"
   width="629.97638"
   height="816.74799"
   style="fill:none;stroke:none;stroke-linecap:square;stroke-miterlimit:10"
   inkscape:version="0.92.5 (2060ec1f9f, 2020-04-08)"
   inkscape:export-filename="/media/wassname/Storage5/projects2/3ST/deep_ml_curriculum_private/notebooks/b06_Time_Series_Analysis/timeseries-rolling-windows.png"
   inkscape:export-xdpi="156.03999"
   inkscape:export-ydpi="156.03999">
  <metadata
     id="metadata267">
    <rdf:RDF>
      <cc:Work
         rdf:about="">
        <dc:format>image/svg+xml</dc:format>
        <dc:type
           rdf:resource="http://purl.org/dc/dcmitype/StillImage" />
        <dc:title></dc:title>
      </cc:Work>
    </rdf:RDF>
  </metadata>
  <defs
     id="defs265" />
  <sodipodi:namedview
     pagecolor="#ffffff"
     bordercolor="#666666"
     borderopacity="1"
     objecttolerance="10"
     gridtolerance="10"
     guidetolerance="10"
     inkscape:pageopacity="0"
     inkscape:pageshadow="2"
     inkscape:window-width="1920"
     inkscape:window-height="1030"
     id="namedview263"
     showgrid="false"
     fit-margin-top="0"
     fit-margin-left="0"
     fit-margin-right="0"
     fit-margin-bottom="0"
     inkscape:zoom="0.59608653"
     inkscape:cx="362.1429"
     inkscape:cy="268.08917"
     inkscape:window-x="0"
     inkscape:window-y="0"
     inkscape:window-maximized="1"
     inkscape:current-layer="svg261" />
  <clipPath
     id="p.0">
    <path
       d="M 0,0 H 962.0105 V 881.2257 H 0 Z"
       id="path2"
       inkscape:connector-curvature="0"
       style="clip-rule:nonzero" />
  </clipPath>
  <path
     style="fill:#ffffff;fill-rule:evenodd"
     inkscape:connector-curvature="0"
     id="path7"
     d="M 0.5,0.5 H 629.4764 V 816.248 H 0.5 Z" />
  <path
     style="fill-rule:evenodd;stroke:#000000;stroke-width:1;stroke-linecap:butt;stroke-linejoin:round"
     inkscape:connector-curvature="0"
     id="path9"
     d="M 0.5,0.5 H 629.4764 V 816.248 H 0.5 Z" />
  <path
     style="fill:#000000;fill-opacity:0;fill-rule:evenodd"
     inkscape:connector-curvature="0"
     id="path11"
     d="M 144.45539,24.20866 H 553.55775 V 49.87795 H 144.45539 Z" />
  <path
     style="fill:#000000;fill-rule:nonzero"
     inkscape:connector-curvature="0"
     id="path13"
     d="M 155.03351,61.01429 V 43.79554 h 1.92187 v 1.625 q 0.6875,-0.95313 1.53125,-1.42188 0.85938,-0.48437 2.07813,-0.48437 1.59375,0 2.8125,0.82812 1.21875,0.8125 1.84375,2.3125 0.625,1.5 0.625,3.28125 0,1.90625 -0.6875,3.4375 -0.6875,1.53125 -2,2.34375 -1.29688,0.8125 -2.73438,0.8125 -1.0625,0 -1.90625,-0.4375 -0.82812,-0.45312 -1.375,-1.14062 v 6.0625 z m 1.92187,-10.92188 q 0,2.40625 0.96875,3.5625 0.96875,1.14063 2.35938,1.14063 1.40625,0 2.40625,-1.1875 1,-1.1875 1,-3.6875 0,-2.375 -0.98438,-3.5625 -0.96875,-1.1875 -2.32812,-1.1875 -1.35938,0 -2.39063,1.26562 -1.03125,1.25 -1.03125,3.65625 z m 19.50391,6.15625 v -1.57812 q -1.1875,1.85937 -3.48437,1.85937 -1.48438,0 -2.73438,-0.8125 -1.25,-0.82812 -1.9375,-2.29687 -0.67187,-1.46875 -0.67187,-3.39063 0,-1.85937 0.60937,-3.375 0.625,-1.51562 1.85938,-2.32812 1.25,-0.8125 2.78125,-0.8125 1.125,0 2,0.48437 0.89062,0.46875 1.4375,1.23438 v -6.17188 h 2.09375 v 17.1875 z m -6.67187,-6.21875 q 0,2.39063 1,3.57813 1.01562,1.1875 2.39062,1.1875 1.39063,0 2.34375,-1.125 0.96875,-1.14063 0.96875,-3.45313 0,-2.5625 -0.98437,-3.75 -0.98438,-1.20312 -2.42188,-1.20312 -1.40625,0 -2.35937,1.15625 -0.9375,1.14062 -0.9375,3.60937 z m 12.55078,6.21875 v -2.40625 h 2.39062 v 2.40625 z m 10.69922,0 V 41.09241 h -5.65625 v -2.03125 h 13.625 v 2.03125 h -5.6875 v 15.15625 z m 9.14453,-14.75 v -2.4375 h 2.10937 v 2.4375 z m 0,14.75 V 43.79554 h 2.10937 v 12.45312 z m 5.3164,0 V 43.79554 h 1.89063 v 1.75 q 0.59375,-0.90625 1.5625,-1.46875 0.96875,-0.5625 2.21875,-0.5625 1.375,0 2.25,0.57812 0.89062,0.57813 1.26562,1.60938 1.46875,-2.1875 3.84375,-2.1875 1.84375,0 2.84375,1.03125 1,1.03125 1,3.15625 v 8.54687 h -2.10937 v -7.84375 q 0,-1.26562 -0.20313,-1.8125 -0.20312,-0.5625 -0.75,-0.90625 -0.53125,-0.34375 -1.25,-0.34375 -1.3125,0 -2.1875,0.875 -0.85937,0.875 -0.85937,2.79688 v 7.23437 h -2.10938 v -8.09375 q 0,-1.40625 -0.51562,-2.10937 -0.51563,-0.70313 -1.6875,-0.70313 -0.89063,0 -1.65625,0.46875 -0.75,0.46875 -1.09375,1.375 -0.34375,0.90625 -0.34375,2.60938 v 6.45312 z m 28.52344,-4.01562 2.17188,0.28125 q -0.51563,1.90625 -1.90625,2.96875 -1.39063,1.04687 -3.5625,1.04687 -2.73438,0 -4.34375,-1.67187 -1.59375,-1.6875 -1.59375,-4.73438 0,-3.14062 1.60937,-4.875 1.625,-1.73437 4.20313,-1.73437 2.5,0 4.07812,1.70312 1.59375,1.70313 1.59375,4.78125 0,0.1875 -0.0156,0.5625 h -9.28125 q 0.10937,2.04688 1.15625,3.14063 1.04687,1.09375 2.60937,1.09375 1.15625,0 1.96875,-0.60938 0.82813,-0.60937 1.3125,-1.95312 z m -6.9375,-3.40625 h 6.95313 q -0.14063,-1.5625 -0.79688,-2.35938 -1,-1.21875 -2.60937,-1.21875 -1.45313,0 -2.45313,0.98438 -0.98437,0.96875 -1.09375,2.59375 z m 10.91016,3.70312 2.09375,-0.32812 q 0.17187,1.25 0.96875,1.92187 0.8125,0.67188 2.25,0.67188 1.45312,0 2.15625,-0.59375 0.70312,-0.59375 0.70312,-1.39063 0,-0.71875 -0.625,-1.125 -0.42187,-0.28125 -2.15625,-0.71875 -2.3125,-0.57812 -3.21875,-1 -0.89062,-0.4375 -1.35937,-1.1875 -0.45313,-0.76562 -0.45313,-1.67187 0,-0.82813 0.375,-1.53125 0.39063,-0.71875 1.04688,-1.1875 0.48437,-0.35938 1.32812,-0.60938 0.85938,-0.26562 1.82813,-0.26562 1.46875,0 2.57812,0.42187 1.10938,0.42188 1.625,1.15625 0.53125,0.71875 0.73438,1.92188 l -2.0625,0.28125 q -0.14063,-0.96875 -0.8125,-1.5 -0.67188,-0.54688 -1.90625,-0.54688 -1.45313,0 -2.07813,0.48438 -0.625,0.48437 -0.625,1.125 0,0.40625 0.26563,0.73437 0.25,0.34375 0.8125,0.5625 0.3125,0.125 1.85937,0.54688 2.23438,0.59375 3.10938,0.98437 0.89062,0.375 1.39062,1.10938 0.51563,0.71875 0.51563,1.79687 0,1.04688 -0.625,1.98438 -0.60938,0.9375 -1.76563,1.45312 -1.15625,0.5 -2.625,0.5 -2.42187,0 -3.70312,-1 -1.26563,-1.01562 -1.625,-3 z m 21.375,-0.29687 2.17187,0.28125 q -0.51562,1.90625 -1.90625,2.96875 -1.39062,1.04687 -3.5625,1.04687 -2.73437,0 -4.34375,-1.67187 -1.59375,-1.6875 -1.59375,-4.73438 0,-3.14062 1.60938,-4.875 1.625,-1.73437 4.20312,-1.73437 2.5,0 4.07813,1.70312 1.59375,1.70313 1.59375,4.78125 0,0.1875 -0.0156,0.5625 h -9.28125 q 0.10938,2.04688 1.15625,3.14063 1.04688,1.09375 2.60938,1.09375 1.15625,0 1.96875,-0.60938 0.82812,-0.60937 1.3125,-1.95312 z m -6.9375,-3.40625 h 6.95312 q -0.14062,-1.5625 -0.79687,-2.35938 -1,-1.21875 -2.60938,-1.21875 -1.45312,0 -2.45312,0.98438 -0.98438,0.96875 -1.09375,2.59375 z m 11.73828,7.42187 V 43.79554 h 1.89062 v 1.89062 q 0.73438,-1.32812 1.34375,-1.75 0.625,-0.42187 1.35938,-0.42187 1.0625,0 2.17187,0.6875 l -0.73437,1.95312 q -0.76563,-0.45312 -1.54688,-0.45312 -0.6875,0 -1.25,0.42187 -0.54687,0.40625 -0.78125,1.14063 -0.34375,1.125 -0.34375,2.46875 v 6.51562 z m 8.02344,-14.75 v -2.4375 h 2.10937 v 2.4375 z m 0,14.75 V 43.79554 h 2.10937 v 12.45312 z m 13.84765,-4.01562 2.17188,0.28125 q -0.51563,1.90625 -1.90625,2.96875 -1.39063,1.04687 -3.5625,1.04687 -2.73438,0 -4.34375,-1.67187 -1.59375,-1.6875 -1.59375,-4.73438 0,-3.14062 1.60937,-4.875 1.625,-1.73437 4.20313,-1.73437 2.5,0 4.07812,1.70312 1.59375,1.70313 1.59375,4.78125 0,0.1875 -0.0156,0.5625 h -9.28125 q 0.10937,2.04688 1.15625,3.14063 1.04687,1.09375 2.60937,1.09375 1.15625,0 1.96875,-0.60938 0.82813,-0.60937 1.3125,-1.95312 z m -6.9375,-3.40625 h 6.95313 q -0.14063,-1.5625 -0.79688,-2.35938 -1,-1.21875 -2.60937,-1.21875 -1.45313,0 -2.45313,0.98438 -0.98437,0.96875 -1.09375,2.59375 z m 10.91016,3.70312 2.09375,-0.32812 q 0.17187,1.25 0.96875,1.92187 0.8125,0.67188 2.25,0.67188 1.45312,0 2.15625,-0.59375 0.70312,-0.59375 0.70312,-1.39063 0,-0.71875 -0.625,-1.125 -0.42187,-0.28125 -2.15625,-0.71875 -2.3125,-0.57812 -3.21875,-1 -0.89062,-0.4375 -1.35937,-1.1875 -0.45313,-0.76562 -0.45313,-1.67187 0,-0.82813 0.375,-1.53125 0.39063,-0.71875 1.04688,-1.1875 0.48437,-0.35938 1.32812,-0.60938 0.85938,-0.26562 1.82813,-0.26562 1.46875,0 2.57812,0.42187 1.10938,0.42188 1.625,1.15625 0.53125,0.71875 0.73438,1.92188 l -2.0625,0.28125 q -0.14063,-0.96875 -0.8125,-1.5 -0.67188,-0.54688 -1.90625,-0.54688 -1.45313,0 -2.07813,0.48438 -0.625,0.48437 -0.625,1.125 0,0.40625 0.26563,0.73437 0.25,0.34375 0.8125,0.5625 0.3125,0.125 1.85937,0.54688 2.23438,0.59375 3.10938,0.98437 0.89062,0.375 1.39062,1.10938 0.51563,0.71875 0.51563,1.79687 0,1.04688 -0.625,1.98438 -0.60938,0.9375 -1.76563,1.45312 -1.15625,0.5 -2.625,0.5 -2.42187,0 -3.70312,-1 -1.26563,-1.01562 -1.625,-3 z m 13.45312,3.71875 v -2.40625 h 2.39063 v 2.40625 z m 6.04297,0 V 43.79554 h 1.89063 v 1.89062 q 0.73437,-1.32812 1.34375,-1.75 0.625,-0.42187 1.35937,-0.42187 1.0625,0 2.17188,0.6875 l -0.73438,1.95312 q -0.76562,-0.45312 -1.54687,-0.45312 -0.6875,0 -1.25,0.42187 -0.54688,0.40625 -0.78125,1.14063 -0.34375,1.125 -0.34375,2.46875 v 6.51562 z m 7.22656,-6.21875 q 0,-3.46875 1.92188,-5.125 1.60937,-1.39062 3.92187,-1.39062 2.5625,0 4.1875,1.6875 1.625,1.6875 1.625,4.64062 0,2.40625 -0.71875,3.78125 -0.71875,1.375 -2.09375,2.14063 -1.375,0.76562 -3,0.76562 -2.625,0 -4.23437,-1.67187 -1.60938,-1.6875 -1.60938,-4.82813 z m 2.17188,0 q 0,2.39063 1.03125,3.57813 1.04687,1.1875 2.64062,1.1875 1.5625,0 2.60938,-1.1875 1.04687,-1.20313 1.04687,-3.65625 0,-2.3125 -1.0625,-3.5 -1.04687,-1.1875 -2.59375,-1.1875 -1.59375,0 -2.64062,1.1875 -1.03125,1.1875 -1.03125,3.57812 z m 11.91016,6.21875 v -17.1875 h 2.10937 v 17.1875 z m 5.33203,0 v -17.1875 h 2.10937 v 17.1875 z m 5.39453,-14.75 v -2.4375 h 2.10937 v 2.4375 z m 0,14.75 V 43.79554 h 2.10937 v 12.45312 z m 5.3164,0 V 43.79554 h 1.90625 v 1.78125 q 1.375,-2.0625 3.95313,-2.0625 1.125,0 2.0625,0.40625 0.95312,0.40625 1.42187,1.0625 0.46875,0.65625 0.65625,1.5625 0.125,0.57812 0.125,2.04687 v 7.65625 h -2.10937 v -7.57812 q 0,-1.28125 -0.25,-1.92188 -0.25,-0.64062 -0.875,-1.01562 -0.625,-0.39063 -1.46875,-0.39063 -1.34375,0 -2.32813,0.85938 -0.98437,0.85937 -0.98437,3.25 v 6.79687 z m 12.97266,1.03126 2.04687,0.3125 q 0.125,0.9375 0.71875,1.375 0.78125,0.59375 2.14063,0.59375 1.46875,0 2.26562,-0.59375 0.79688,-0.57813 1.07813,-1.64063 0.15625,-0.64063 0.14062,-2.70313 -1.375,1.625 -3.4375,1.625 -2.5625,0 -3.96875,-1.84375 -1.40625,-1.85937 -1.40625,-4.45312 0,-1.78125 0.64063,-3.28125 0.64062,-1.51563 1.85937,-2.32813 1.23438,-0.82812 2.89063,-0.82812 2.20312,0 3.625,1.78125 v -1.5 h 1.95312 v 10.76562 q 0,2.90626 -0.59375,4.10938 -0.59375,1.21875 -1.875,1.92188 -1.28125,0.70312 -3.15625,0.70312 -2.23437,0 -3.60937,-1 -1.35938,-1 -1.3125,-3.01562 z m 1.73437,-7.48438 q 0,2.45312 0.96875,3.57812 0.98438,1.125 2.45313,1.125 1.45312,0 2.4375,-1.10937 0.98437,-1.125 0.98437,-3.51563 0,-2.28125 -1.01562,-3.4375 -1.01563,-1.17187 -2.45313,-1.17187 -1.40625,0 -2.39062,1.14062 -0.98438,1.14063 -0.98438,3.39063 z" />
  <path
     style="fill:#ffffff;fill-rule:evenodd"
     inkscape:connector-curvature="0"
     id="path15"
     d="m 137.58924,190.98032 h 114.61417 v 40.59843 H 137.58924 Z" />
  <path
     style="fill-rule:evenodd;stroke:#000000;stroke-width:1;stroke-linecap:butt;stroke-linejoin:round"
     inkscape:connector-curvature="0"
     id="path17"
     d="m 137.58924,190.98032 h 114.61417 v 40.59843 H 137.58924 Z" />
  <path
     style="fill:#000000;fill-rule:evenodd"
     inkscape:connector-curvature="0"
     id="path19"
     d="m 150.98043,215.59022 v 0 c 0,-4.25302 3.44777,-7.70079 7.70079,-7.70079 v 0 c 2.04239,0 4.0011,0.81134 5.44528,2.25551 1.44419,1.44418 2.2555,3.40292 2.2555,5.44528 v 0 c 0,4.25302 -3.44776,7.70081 -7.70078,7.70081 v 0 c -4.25302,0 -7.70079,-3.44779 -7.70079,-7.70081 z" />
  <path
     style="fill-rule:evenodd;stroke:#000000;stroke-width:1;stroke-linecap:butt;stroke-linejoin:round"
     inkscape:connector-curvature="0"
     id="path21"
     d="m 150.98043,215.59022 v 0 c 0,-4.25302 3.44777,-7.70079 7.70079,-7.70079 v 0 c 2.04239,0 4.0011,0.81134 5.44528,2.25551 1.44419,1.44418 2.2555,3.40292 2.2555,5.44528 v 0 c 0,4.25302 -3.44776,7.70081 -7.70078,7.70081 v 0 c -4.25302,0 -7.70079,-3.44779 -7.70079,-7.70081 z" />
  <path
     style="fill:#ffffff;fill-rule:evenodd"
     inkscape:connector-curvature="0"
     id="path23"
     d="m 198.98044,207.59022 v 0 c 0,-4.25302 3.44775,-7.70079 7.70078,-7.70079 v 0 c 2.04238,0 4.00109,0.81134 5.44528,2.25551 1.44418,1.44418 2.25549,3.40291 2.25549,5.44528 v 0 c 0,4.25304 -3.44775,7.70081 -7.70077,7.70081 v 0 c -4.25303,0 -7.70078,-3.44777 -7.70078,-7.70081 z" />
  <path
     style="fill-rule:evenodd;stroke:#000000;stroke-width:1;stroke-linecap:butt;stroke-linejoin:round"
     inkscape:connector-curvature="0"
     id="path25"
     d="m 198.98044,207.59022 v 0 c 0,-4.25302 3.44775,-7.70079 7.70078,-7.70079 v 0 c 2.04238,0 4.00109,0.81134 5.44528,2.25551 1.44418,1.44418 2.25549,3.40291 2.25549,5.44528 v 0 c 0,4.25304 -3.44775,7.70081 -7.70077,7.70081 v 0 c -4.25303,0 -7.70078,-3.44777 -7.70078,-7.70081 z" />
  <path
     style="fill:#000000;fill-opacity:0;fill-rule:evenodd"
     inkscape:connector-curvature="0"
     id="path27"
     d="m 139.10892,140.61548 343.21262,-1.29134" />
  <path
     style="fill-rule:evenodd;stroke:#000000;stroke-width:1;stroke-linecap:butt;stroke-linejoin:round"
     inkscape:connector-curvature="0"
     id="path29"
     d="m 139.10892,140.61548 343.21262,-1.29134" />
  <path
     style="fill:#000000;fill-opacity:0;fill-rule:evenodd"
     inkscape:connector-curvature="0"
     id="path31"
     d="m 137.18241,131.95145 v 23.08661" />
  <path
     style="fill-rule:evenodd;stroke:#000000;stroke-width:1;stroke-linecap:butt;stroke-linejoin:round"
     inkscape:connector-curvature="0"
     id="path33"
     d="m 137.18241,131.95145 v 23.08661" />
  <path
     style="fill:#000000;fill-opacity:0;fill-rule:evenodd"
     inkscape:connector-curvature="0"
     id="path35"
     d="m 251.10754,131.28834 v 23.08661" />
  <path
     style="fill-rule:evenodd;stroke:#000000;stroke-width:1;stroke-linecap:butt;stroke-linejoin:round"
     inkscape:connector-curvature="0"
     id="path37"
     d="m 251.10754,131.28834 v 23.08661" />
  <path
     style="fill:#000000;fill-opacity:0;fill-rule:evenodd"
     inkscape:connector-curvature="0"
     id="path39"
     d="m 368.21984,131.28834 v 23.08661" />
  <path
     style="fill-rule:evenodd;stroke:#000000;stroke-width:1;stroke-linecap:butt;stroke-linejoin:round"
     inkscape:connector-curvature="0"
     id="path41"
     d="m 368.21984,131.28834 v 23.08661" />
  <path
     style="fill:#000000;fill-opacity:0;fill-rule:evenodd"
     inkscape:connector-curvature="0"
     id="path43"
     d="m 482.14494,130.32577 v 23.08661" />
  <path
     style="fill-rule:evenodd;stroke:#000000;stroke-width:1;stroke-linecap:butt;stroke-linejoin:round"
     inkscape:connector-curvature="0"
     id="path45"
     d="m 482.14494,130.32577 v 23.08661" />
  <path
     style="fill:#000000;fill-rule:evenodd"
     inkscape:connector-curvature="0"
     id="path47"
     d="m 148.43326,116.55249 v 0 c 0,-4.25302 3.44775,-7.70079 7.70077,-7.70079 v 0 c 2.04239,0 4.0011,0.81134 5.44529,2.25551 1.44418,1.44418 2.25552,3.40291 2.25552,5.44528 v 0 c 0,4.25304 -3.44775,7.70079 -7.7008,7.70079 v 0 c -4.25303,0 -7.70078,-3.44775 -7.70078,-7.70079 z" />
  <path
     style="fill-rule:evenodd;stroke:#000000;stroke-width:1;stroke-linecap:butt;stroke-linejoin:round"
     inkscape:connector-curvature="0"
     id="path49"
     d="m 148.43326,116.55249 v 0 c 0,-4.25302 3.44775,-7.70079 7.70077,-7.70079 v 0 c 2.04239,0 4.0011,0.81134 5.44529,2.25551 1.44418,1.44418 2.25552,3.40291 2.25552,5.44528 v 0 c 0,4.25304 -3.44775,7.70079 -7.7008,7.70079 v 0 c -4.25303,0 -7.70078,-3.44775 -7.70078,-7.70079 z" />
  <path
     style="fill:#ffffff;fill-rule:evenodd"
     inkscape:connector-curvature="0"
     id="path51"
     d="m 196.43326,108.55249 v 0 c 0,-4.25302 3.44775,-7.70079 7.70077,-7.70079 v 0 c 2.04239,0 4.0011,0.81134 5.44529,2.25551 1.44418,1.44418 2.25552,3.40291 2.25552,5.44528 v 0 c 0,4.25304 -3.44775,7.70079 -7.7008,7.70079 v 0 c -4.25303,0 -7.70078,-3.44775 -7.70078,-7.70079 z" />
  <path
     style="fill-rule:evenodd;stroke:#000000;stroke-width:1;stroke-linecap:butt;stroke-linejoin:round"
     inkscape:connector-curvature="0"
     id="path53"
     d="m 196.43326,108.55249 v 0 c 0,-4.25302 3.44775,-7.70079 7.70077,-7.70079 v 0 c 2.04239,0 4.0011,0.81134 5.44529,2.25551 1.44418,1.44418 2.25552,3.40291 2.25552,5.44528 v 0 c 0,4.25304 -3.44775,7.70079 -7.7008,7.70079 v 0 c -4.25303,0 -7.70078,-3.44775 -7.70078,-7.70079 z" />
  <path
     style="fill:#000000;fill-rule:evenodd"
     inkscape:connector-curvature="0"
     id="path55"
     d="m 260.43326,124.55249 v 0 c 0,-4.25302 3.44775,-7.70079 7.70077,-7.70079 v 0 c 2.04239,0 4.0011,0.81134 5.44529,2.25551 1.44418,1.44418 2.25552,3.40291 2.25552,5.44528 v 0 c 0,4.25304 -3.44775,7.70079 -7.7008,7.70079 v 0 c -4.25303,0 -7.70078,-3.44775 -7.70078,-7.70079 z" />
  <path
     style="fill-rule:evenodd;stroke:#000000;stroke-width:1;stroke-linecap:butt;stroke-linejoin:round"
     inkscape:connector-curvature="0"
     id="path57"
     d="m 260.43326,124.55249 v 0 c 0,-4.25302 3.44775,-7.70079 7.70077,-7.70079 v 0 c 2.04239,0 4.0011,0.81134 5.44529,2.25551 1.44418,1.44418 2.25552,3.40291 2.25552,5.44528 v 0 c 0,4.25304 -3.44775,7.70079 -7.7008,7.70079 v 0 c -4.25303,0 -7.70078,-3.44775 -7.70078,-7.70079 z" />
  <path
     style="fill:#ffffff;fill-rule:evenodd"
     inkscape:connector-curvature="0"
     id="path59"
     d="m 300.07477,124.55249 v 0 c 0,-4.25302 3.44775,-7.70079 7.70078,-7.70079 v 0 c 2.04238,0 4.00109,0.81134 5.44528,2.25551 1.44418,1.44418 2.25552,3.40291 2.25552,5.44528 v 0 c 0,4.25304 -3.44775,7.70079 -7.7008,7.70079 v 0 c -4.25303,0 -7.70078,-3.44775 -7.70078,-7.70079 z" />
  <path
     style="fill-rule:evenodd;stroke:#000000;stroke-width:1;stroke-linecap:butt;stroke-linejoin:round"
     inkscape:connector-curvature="0"
     id="path61"
     d="m 300.07477,124.55249 v 0 c 0,-4.25302 3.44775,-7.70079 7.70078,-7.70079 v 0 c 2.04238,0 4.00109,0.81134 5.44528,2.25551 1.44418,1.44418 2.25552,3.40291 2.25552,5.44528 v 0 c 0,4.25304 -3.44775,7.70079 -7.7008,7.70079 v 0 c -4.25303,0 -7.70078,-3.44775 -7.70078,-7.70079 z" />
  <path
     style="fill:#000000;fill-rule:evenodd"
     inkscape:connector-curvature="0"
     id="path63"
     d="m 347.71628,108.55249 v 0 c 0,-4.25302 3.44775,-7.70079 7.70078,-7.70079 v 0 c 2.04238,0 4.00109,0.81134 5.44528,2.25551 1.44418,1.44418 2.25552,3.40291 2.25552,5.44528 v 0 c 0,4.25304 -3.44775,7.70079 -7.7008,7.70079 v 0 c -4.25303,0 -7.70078,-3.44775 -7.70078,-7.70079 z" />
  <path
     style="fill-rule:evenodd;stroke:#000000;stroke-width:1;stroke-linecap:butt;stroke-linejoin:round"
     inkscape:connector-curvature="0"
     id="path65"
     d="m 347.71628,108.55249 v 0 c 0,-4.25302 3.44775,-7.70079 7.70078,-7.70079 v 0 c 2.04238,0 4.00109,0.81134 5.44528,2.25551 1.44418,1.44418 2.25552,3.40291 2.25552,5.44528 v 0 c 0,4.25304 -3.44775,7.70079 -7.7008,7.70079 v 0 c -4.25303,0 -7.70078,-3.44775 -7.70078,-7.70079 z" />
  <path
     style="fill:#ffffff;fill-rule:evenodd"
     inkscape:connector-curvature="0"
     id="path67"
     d="m 412.43324,100.55249 v 0 c 0,-4.25302 3.44782,-7.70079 7.70081,-7.70079 v 0 c 2.04235,0 4.00109,0.81134 5.44531,2.25551 1.44415,1.44418 2.25549,3.40291 2.25549,5.44528 v 0 c 0,4.25304 -3.44775,7.70079 -7.7008,7.70079 v 0 c -4.25299,0 -7.70081,-3.44775 -7.70081,-7.70079 z" />
  <path
     style="fill-rule:evenodd;stroke:#000000;stroke-width:1;stroke-linecap:butt;stroke-linejoin:round"
     inkscape:connector-curvature="0"
     id="path69"
     d="m 412.43324,100.55249 v 0 c 0,-4.25302 3.44782,-7.70079 7.70081,-7.70079 v 0 c 2.04235,0 4.00109,0.81134 5.44531,2.25551 1.44415,1.44418 2.25549,3.40291 2.25549,5.44528 v 0 c 0,4.25304 -3.44775,7.70079 -7.7008,7.70079 v 0 c -4.25299,0 -7.70081,-3.44775 -7.70081,-7.70079 z" />
  <path
     style="fill:#000000;fill-rule:evenodd"
     inkscape:connector-curvature="0"
     id="path71"
     d="m 428.6706,191.75197 h 85.66931 v -2.40945 l 4.81891,4.8189 -4.81891,4.8189 v -2.40946 H 428.6706 Z" />
  <path
     style="fill-rule:evenodd;stroke:#000000;stroke-width:1;stroke-linecap:butt;stroke-linejoin:round"
     inkscape:connector-curvature="0"
     id="path73"
     d="m 428.6706,191.75197 h 85.66931 v -2.40945 l 4.81891,4.8189 -4.81891,4.8189 v -2.40946 H 428.6706 Z" />
  <path
     style="fill:#000000;fill-opacity:0;fill-rule:evenodd"
     inkscape:connector-curvature="0"
     id="path75"
     d="m 124.13779,148.00934 h 60.15747 v 25.66928 h -60.15747 z" />
  <path
     style="fill:#000000;fill-rule:nonzero"
     inkscape:connector-curvature="0"
     id="path77"
     d="m 133.68467,165.1062 q 0,-1.6875 0.34375,-2.71875 0.35937,-1.03125 1.04687,-1.59375 0.6875,-0.5625 1.71875,-0.5625 0.78125,0 1.35938,0.3125 0.57812,0.29687 0.95312,0.89062 0.375,0.57813 0.59375,1.42188 0.21875,0.82812 0.21875,2.25 0,1.67187 -0.35937,2.70312 -0.34375,1.03125 -1.03125,1.59375 -0.67188,0.5625 -1.73438,0.5625 -1.375,0 -2.15625,-0.98437 -0.95312,-1.1875 -0.95312,-3.875 z m 1.20312,0 q 0,2.34375 0.54688,3.125 0.5625,0.78125 1.35937,0.78125 0.8125,0 1.35938,-0.78125 0.5625,-0.78125 0.5625,-3.125 0,-2.35938 -0.5625,-3.125 -0.54688,-0.78125 -1.35938,-0.78125 -0.8125,0 -1.29687,0.6875 -0.60938,0.875 -0.60938,3.21875 z" />
  <path
     style="fill:#000000;fill-opacity:0;fill-rule:evenodd"
     inkscape:connector-curvature="0"
     id="path79"
     d="m 236.13779,148.00934 h 60.15747 v 25.66928 h -60.15747 z" />
  <path
     style="fill:#000000;fill-rule:nonzero"
     inkscape:connector-curvature="0"
     id="path81"
     d="m 245.68467,167.30933 1.23437,-0.10938 q 0.14063,0.90625 0.64063,1.35938 0.5,0.45312 1.20312,0.45312 0.84375,0 1.42188,-0.64062 0.59375,-0.64063 0.59375,-1.6875 0,-1 -0.5625,-1.57813 -0.5625,-0.59375 -1.48438,-0.59375 -0.5625,0 -1.01562,0.26563 -0.45313,0.25 -0.71875,0.67187 l -1.09375,-0.15625 0.92187,-4.89062 h 4.75 v 1.10937 h -3.8125 l -0.51562,2.5625 q 0.85937,-0.59375 1.79687,-0.59375 1.25,0 2.10938,0.875 0.85937,0.85938 0.85937,2.21875 0,1.29688 -0.75,2.23438 -0.92187,1.15625 -2.5,1.15625 -1.3125,0 -2.14062,-0.71875 -0.8125,-0.73438 -0.9375,-1.9375 z" />
  <path
     style="fill:#000000;fill-opacity:0;fill-rule:evenodd"
     inkscape:connector-curvature="0"
     id="path83"
     d="m 351.04346,148.00934 h 60.15747 v 25.66928 h -60.15747 z" />
  <path
     style="fill:#000000;fill-rule:nonzero"
     inkscape:connector-curvature="0"
     id="path85"
     d="m 365.01221,169.80933 h -1.17188 v -7.46875 q -0.42187,0.40625 -1.10937,0.8125 -0.6875,0.40625 -1.23438,0.60937 v -1.14062 q 0.98438,-0.45313 1.71875,-1.10938 0.73438,-0.67187 1.03125,-1.28125 h 0.76563 z m 2.9906,-4.70313 q 0,-1.6875 0.34375,-2.71875 0.35938,-1.03125 1.04688,-1.59375 0.6875,-0.5625 1.71875,-0.5625 0.78125,0 1.35937,0.3125 0.57813,0.29688 0.95313,0.89063 0.375,0.57812 0.59375,1.42187 0.21875,0.82813 0.21875,2.25 0,1.67188 -0.35938,2.70313 -0.34375,1.03125 -1.03125,1.59375 -0.67187,0.5625 -1.73437,0.5625 -1.375,0 -2.15625,-0.98438 -0.95313,-1.1875 -0.95313,-3.875 z m 1.20313,0 q 0,2.34375 0.54687,3.125 0.5625,0.78125 1.35938,0.78125 0.8125,0 1.35937,-0.78125 0.5625,-0.78125 0.5625,-3.125 0,-2.35937 -0.5625,-3.125 -0.54687,-0.78125 -1.35937,-0.78125 -0.8125,0 -1.29688,0.6875 -0.60937,0.875 -0.60937,3.21875 z" />
  <path
     style="fill:#000000;fill-opacity:0;fill-rule:evenodd"
     inkscape:connector-curvature="0"
     id="path87"
     d="m 468.13784,148.00934 h 60.15747 v 25.66928 h -60.15747 z" />
  <path
     style="fill:#000000;fill-rule:nonzero"
     inkscape:connector-curvature="0"
     id="path89"
     d="m 482.10657,169.80933 h -1.17188 v -7.46875 q -0.42187,0.40625 -1.10937,0.8125 -0.6875,0.40625 -1.23438,0.60937 v -1.14062 q 0.98438,-0.45313 1.71875,-1.10938 0.73438,-0.67187 1.03125,-1.28125 h 0.76563 z m 2.9906,-2.5 1.23438,-0.10938 q 0.14062,0.90625 0.64062,1.35938 0.5,0.45312 1.20313,0.45312 0.84375,0 1.42187,-0.64062 0.59375,-0.64063 0.59375,-1.6875 0,-1 -0.5625,-1.57813 -0.5625,-0.59375 -1.48437,-0.59375 -0.5625,0 -1.01563,0.26563 -0.45312,0.25 -0.71875,0.67187 l -1.09375,-0.15625 0.92188,-4.89062 h 4.75 v 1.10937 h -3.8125 l -0.51563,2.5625 q 0.85938,-0.59375 1.79688,-0.59375 1.25,0 2.10937,0.875 0.85938,0.85938 0.85938,2.21875 0,1.29688 -0.75,2.23438 -0.92188,1.15625 -2.5,1.15625 -1.3125,0 -2.14063,-0.71875 -0.8125,-0.73438 -0.9375,-1.9375 z" />
  <path
     style="fill:#000000;fill-opacity:0;fill-rule:evenodd"
     inkscape:connector-curvature="0"
     id="path91"
     d="m 90.89107,197.12204 h 46.70866 v 40.59843 H 90.89107 Z" />
  <path
     style="fill:#000000;fill-rule:nonzero"
     inkscape:connector-curvature="0"
     id="path93"
     d="m 100.43794,214.21892 q 0,-1.6875 0.34375,-2.71875 0.35937,-1.03125 1.04687,-1.59375 0.6875,-0.5625 1.71875,-0.5625 0.78125,0 1.35938,0.3125 0.57812,0.29687 0.95312,0.89062 0.375,0.57813 0.59375,1.42188 0.21875,0.82812 0.21875,2.25 0,1.67187 -0.35937,2.70312 -0.34375,1.03125 -1.03125,1.59375 -0.67188,0.5625 -1.73438,0.5625 -1.375,0 -2.15625,-0.98437 -0.95312,-1.1875 -0.95312,-3.875 z m 1.20312,0 q 0,2.34375 0.54688,3.125 0.5625,0.78125 1.35937,0.78125 0.8125,0 1.35938,-0.78125 0.5625,-0.78125 0.5625,-3.125 0,-2.35938 -0.5625,-3.125 -0.54688,-0.78125 -1.35938,-0.78125 -0.8125,0 -1.29687,0.6875 -0.60938,0.875 -0.60938,3.21875 z m 6.08436,1.84375 v -1.1875 h 3.59375 v 1.1875 z m 4.56337,0.35937 1.23437,-0.10937 q 0.14063,0.90625 0.64063,1.35937 0.5,0.45313 1.20312,0.45313 0.84375,0 1.42188,-0.64063 0.59375,-0.64062 0.59375,-1.6875 0,-1 -0.5625,-1.57812 -0.5625,-0.59375 -1.48438,-0.59375 -0.5625,0 -1.01562,0.26562 -0.45313,0.25 -0.71875,0.67188 l -1.09375,-0.15625 0.92187,-4.89063 h 4.75 v 1.10938 h -3.8125 l -0.51562,2.5625 q 0.85937,-0.59375 1.79687,-0.59375 1.25,0 2.10938,0.875 0.85937,0.85937 0.85937,2.21875 0,1.29687 -0.75,2.23437 -0.92187,1.15625 -2.5,1.15625 -1.3125,0 -2.14062,-0.71875 -0.8125,-0.73437 -0.9375,-1.9375 z" />
  <path
     style="fill:#000000;fill-opacity:0;fill-rule:evenodd"
     inkscape:connector-curvature="0"
     id="path95"
     d="m 91.74013,253.12205 h 46.70866 v 40.59842 H 91.74013 Z" />
  <path
     style="fill:#000000;fill-rule:nonzero"
     inkscape:connector-curvature="0"
     id="path97"
     d="M 105.70888,274.92204 H 104.537 v -7.46875 q -0.42187,0.40625 -1.10937,0.8125 -0.6875,0.40625 -1.23438,0.60937 v -1.14062 q 0.98438,-0.45313 1.71875,-1.10938 0.73438,-0.67187 1.03125,-1.28125 h 0.76563 z m 2.8656,-2.85938 v -1.1875 h 3.59375 v 1.1875 z m 10.6415,-4.34375 -1.15625,0.0937 q -0.15625,-0.6875 -0.4375,-1 -0.48438,-0.5 -1.17188,-0.5 -0.5625,0 -0.98437,0.3125 -0.5625,0.39063 -0.89063,1.17188 -0.3125,0.76562 -0.3125,2.20312 0.42188,-0.64062 1.03125,-0.95312 0.60938,-0.3125 1.28125,-0.3125 1.17188,0 1.98438,0.85937 0.82812,0.85938 0.82812,2.23438 0,0.89062 -0.39062,1.67187 -0.375,0.76563 -1.0625,1.17188 -0.67188,0.40625 -1.53125,0.40625 -1.46875,0 -2.39063,-1.0625 -0.92187,-1.07813 -0.92187,-3.5625 0,-2.76563 1.01562,-4.01563 0.90625,-1.09375 2.40625,-1.09375 1.125,0 1.84375,0.64063 0.71875,0.625 0.85938,1.73437 z m -4.78125,4.10938 q 0,0.60937 0.25,1.17187 0.26562,0.54688 0.71875,0.84375 0.46875,0.28125 0.98437,0.28125 0.73438,0 1.26563,-0.59375 0.54687,-0.60937 0.54687,-1.64062 0,-0.98438 -0.53125,-1.54688 -0.53125,-0.57812 -1.32812,-0.57812 -0.79688,0 -1.35938,0.57812 -0.54687,0.5625 -0.54687,1.48438 z" />
  <path
     style="fill:#ffffff;fill-rule:evenodd"
     inkscape:connector-curvature="0"
     id="path99"
     d="m 161.58924,246.98029 h 114.61417 v 40.59845 H 161.58924 Z" />
  <path
     style="fill-rule:evenodd;stroke:#000000;stroke-width:1;stroke-linecap:butt;stroke-linejoin:round"
     inkscape:connector-curvature="0"
     id="path101"
     d="m 161.58924,246.98029 h 114.61417 v 40.59845 H 161.58924 Z" />
  <path
     style="fill:#ffffff;fill-rule:evenodd"
     inkscape:connector-curvature="0"
     id="path103"
     d="m 196.43326,258.85439 v 0 c 0,-4.25302 3.44775,-7.70081 7.70077,-7.70081 v 0 c 2.04239,0 4.0011,0.81134 5.44529,2.25553 1.44418,1.44418 2.25552,3.40289 2.25552,5.44528 v 0 c 0,4.25302 -3.44775,7.70078 -7.7008,7.70078 v 0 c -4.25303,0 -7.70078,-3.44776 -7.70078,-7.70078 z" />
  <path
     style="fill-rule:evenodd;stroke:#000000;stroke-width:1;stroke-linecap:butt;stroke-linejoin:round"
     inkscape:connector-curvature="0"
     id="path105"
     d="m 196.43326,258.85439 v 0 c 0,-4.25302 3.44775,-7.70081 7.70077,-7.70081 v 0 c 2.04239,0 4.0011,0.81134 5.44529,2.25553 1.44418,1.44418 2.25552,3.40289 2.25552,5.44528 v 0 c 0,4.25302 -3.44775,7.70078 -7.7008,7.70078 v 0 c -4.25303,0 -7.70078,-3.44776 -7.70078,-7.70078 z" />
  <path
     style="fill:#000000;fill-rule:evenodd"
     inkscape:connector-curvature="0"
     id="path107"
     d="m 253.28232,274.85439 v 0 c 0,-4.25302 3.44775,-7.70081 7.70077,-7.70081 v 0 c 2.04239,0 4.0011,0.81134 5.44529,2.25553 1.44418,1.44418 2.25552,3.40289 2.25552,5.44528 v 0 c 0,4.25302 -3.44778,7.70078 -7.7008,7.70078 v 0 c -4.25303,0 -7.70078,-3.44776 -7.70078,-7.70078 z" />
  <path
     style="fill-rule:evenodd;stroke:#000000;stroke-width:1;stroke-linecap:butt;stroke-linejoin:round"
     inkscape:connector-curvature="0"
     id="path109"
     d="m 253.28232,274.85439 v 0 c 0,-4.25302 3.44775,-7.70081 7.70077,-7.70081 v 0 c 2.04239,0 4.0011,0.81134 5.44529,2.25553 1.44418,1.44418 2.25552,3.40289 2.25552,5.44528 v 0 c 0,4.25302 -3.44778,7.70078 -7.7008,7.70078 v 0 c -4.25303,0 -7.70078,-3.44776 -7.70078,-7.70078 z" />
  <path
     style="fill:#ffffff;fill-rule:evenodd"
     inkscape:connector-curvature="0"
     id="path111"
     d="m 185.58924,302.62181 h 114.61417 v 40.59845 H 185.58924 Z" />
  <path
     style="fill-rule:evenodd;stroke:#000000;stroke-width:1;stroke-linecap:butt;stroke-linejoin:round"
     inkscape:connector-curvature="0"
     id="path113"
     d="m 185.58924,302.62181 h 114.61417 v 40.59845 H 185.58924 Z" />
  <path
     style="fill:#ffffff;fill-rule:evenodd"
     inkscape:connector-curvature="0"
     id="path115"
     d="m 196.43326,314.49589 v 0 c 0,-4.25302 3.44775,-7.70081 7.70077,-7.70081 v 0 c 2.04239,0 4.0011,0.81134 5.44529,2.25553 1.44418,1.44418 2.25552,3.40289 2.25552,5.44528 v 0 c 0,4.25302 -3.44775,7.70078 -7.7008,7.70078 v 0 c -4.25303,0 -7.70078,-3.44776 -7.70078,-7.70078 z" />
  <path
     style="fill-rule:evenodd;stroke:#000000;stroke-width:1;stroke-linecap:butt;stroke-linejoin:round"
     inkscape:connector-curvature="0"
     id="path117"
     d="m 196.43326,314.49589 v 0 c 0,-4.25302 3.44775,-7.70081 7.70077,-7.70081 v 0 c 2.04239,0 4.0011,0.81134 5.44529,2.25553 1.44418,1.44418 2.25552,3.40289 2.25552,5.44528 v 0 c 0,4.25302 -3.44775,7.70078 -7.7008,7.70078 v 0 c -4.25303,0 -7.70078,-3.44776 -7.70078,-7.70078 z" />
  <path
     style="fill:#000000;fill-rule:evenodd"
     inkscape:connector-curvature="0"
     id="path119"
     d="m 253.75114,330.49589 v 0 c 0,-4.25302 3.44775,-7.70081 7.70077,-7.70081 v 0 c 2.04239,0 4.0011,0.81134 5.44529,2.25553 1.44418,1.44418 2.25549,3.40289 2.25549,5.44528 v 0 c 0,4.25302 -3.44775,7.70078 -7.70077,7.70078 v 0 c -4.25303,0 -7.70078,-3.44776 -7.70078,-7.70078 z" />
  <path
     style="fill-rule:evenodd;stroke:#000000;stroke-width:1;stroke-linecap:butt;stroke-linejoin:round"
     inkscape:connector-curvature="0"
     id="path121"
     d="m 253.75114,330.49589 v 0 c 0,-4.25302 3.44775,-7.70081 7.70077,-7.70081 v 0 c 2.04239,0 4.0011,0.81134 5.44529,2.25553 1.44418,1.44418 2.25549,3.40289 2.25549,5.44528 v 0 c 0,4.25302 -3.44775,7.70078 -7.70077,7.70078 v 0 c -4.25303,0 -7.70078,-3.44776 -7.70078,-7.70078 z" />
  <path
     style="fill:#000000;fill-opacity:0;fill-rule:evenodd"
     inkscape:connector-curvature="0"
     id="path123"
     d="m 92.09862,309.12205 h 46.70866 v 40.59842 H 92.09862 Z" />
  <path
     style="fill:#000000;fill-rule:nonzero"
     inkscape:connector-curvature="0"
     id="path125"
     d="m 107.80174,329.79704 v 1.125 h -6.29687 q -0.0156,-0.42188 0.14062,-0.8125 0.23438,-0.64063 0.76563,-1.26563 0.53125,-0.625 1.53125,-1.45312 1.5625,-1.26563 2.10937,-2.01563 0.54688,-0.75 0.54688,-1.40625 0,-0.70312 -0.5,-1.17187 -0.5,-0.48438 -1.29688,-0.48438 -0.85937,0 -1.375,0.51563 -0.5,0.5 -0.5,1.39062 l -1.20312,-0.10937 q 0.125,-1.35938 0.92187,-2.0625 0.8125,-0.70313 2.17188,-0.70313 1.375,0 2.17187,0.76563 0.8125,0.75 0.8125,1.875 0,0.57812 -0.23437,1.14062 -0.23438,0.54688 -0.78125,1.15625 -0.54688,0.60938 -1.8125,1.67188 -1.04688,0.89062 -1.35938,1.21875 -0.29687,0.3125 -0.48437,0.625 z m 1.13123,-1.73438 v -1.1875 h 3.59375 v 1.1875 z m 4.64149,-5.4375 v -1.125 h 6.1875 v 0.92188 q -0.92187,0.96875 -1.8125,2.57812 -0.89062,1.59375 -1.375,3.29688 -0.35937,1.20312 -0.45312,2.625 h -1.20313 q 0.0156,-1.125 0.4375,-2.71875 0.42188,-1.59375 1.20313,-3.07813 0.79687,-1.48437 1.6875,-2.5 z" />
  <path
     style="fill:#ffffff;fill-rule:evenodd"
     inkscape:connector-curvature="0"
     id="path127"
     d="m 209.23074,358.62181 h 114.61417 v 40.59845 H 209.23074 Z" />
  <path
     style="fill-rule:evenodd;stroke:#000000;stroke-width:1;stroke-linecap:butt;stroke-linejoin:round"
     inkscape:connector-curvature="0"
     id="path129"
     d="m 209.23074,358.62181 h 114.61417 v 40.59845 H 209.23074 Z" />
  <path
     style="fill:#000000;fill-opacity:0;fill-rule:evenodd"
     inkscape:connector-curvature="0"
     id="path131"
     d="m 95.00428,358.82014 h 46.70866 v 40.59845 H 95.00428 Z" />
  <path
     style="fill:#000000;fill-rule:nonzero"
     inkscape:connector-curvature="0"
     id="path133"
     d="m 104.56678,378.10454 1.17187,-0.15625 q 0.20313,1 0.6875,1.4375 0.48438,0.4375 1.17188,0.4375 0.82812,0 1.39062,-0.57813 0.57813,-0.57812 0.57813,-1.42187 0,-0.79688 -0.53125,-1.3125 -0.51563,-0.53125 -1.32813,-0.53125 -0.34375,0 -0.82812,0.125 l 0.125,-1.03125 q 0.125,0.0156 0.1875,0.0156 0.75,0 1.34375,-0.39062 0.60937,-0.39063 0.60937,-1.20313 0,-0.64062 -0.4375,-1.0625 -0.4375,-0.42187 -1.125,-0.42187 -0.6875,0 -1.14062,0.4375 -0.45313,0.42187 -0.59375,1.28125 l -1.17188,-0.21875 q 0.21875,-1.17188 0.98438,-1.8125 0.76562,-0.65625 1.89062,-0.65625 0.78125,0 1.4375,0.34375 0.65625,0.32812 1,0.90625 0.35938,0.57812 0.35938,1.23437 0,0.60938 -0.34375,1.125 -0.32813,0.5 -0.96875,0.79688 0.84375,0.20312 1.3125,0.82812 0.46875,0.60938 0.46875,1.53125 0,1.25 -0.92188,2.125 -0.90625,0.85938 -2.29687,0.85938 -1.25,0 -2.09375,-0.75 -0.82813,-0.75 -0.9375,-1.9375 z m 7.27185,-0.34375 v -1.1875 h 3.59375 v 1.1875 z m 6.37587,-2.3125 q -0.73437,-0.26563 -1.09375,-0.76563 -0.34375,-0.5 -0.34375,-1.1875 0,-1.03125 0.75,-1.73437 0.75,-0.71875 1.98438,-0.71875 1.25,0 2.01562,0.73437 0.76563,0.71875 0.76563,1.75 0,0.67188 -0.35938,1.17188 -0.34375,0.48437 -1.04687,0.75 0.875,0.28125 1.32812,0.92187 0.46875,0.64063 0.46875,1.51563 0,1.23437 -0.875,2.0625 -0.85937,0.82812 -2.26562,0.82812 -1.42188,0 -2.28125,-0.82812 -0.85938,-0.84375 -0.85938,-2.09375 0,-0.92188 0.46875,-1.54688 0.46875,-0.64062 1.34375,-0.85937 z m -0.23437,-1.98438 q 0,0.67188 0.4375,1.10938 0.4375,0.42187 1.125,0.42187 0.67187,0 1.10937,-0.42187 0.4375,-0.42188 0.4375,-1.04688 0,-0.64062 -0.45312,-1.07812 -0.4375,-0.4375 -1.10938,-0.4375 -0.67187,0 -1.10937,0.4375 -0.4375,0.42187 -0.4375,1.01562 z m -0.375,4.40625 q 0,0.5 0.23437,0.96875 0.23438,0.46875 0.70313,0.73438 0.46875,0.25 1.01562,0.25 0.82813,0 1.375,-0.53125 0.54688,-0.54688 0.54688,-1.39063 0,-0.84375 -0.5625,-1.39062 -0.5625,-0.5625 -1.40625,-0.5625 -0.82813,0 -1.375,0.54687 -0.53125,0.54688 -0.53125,1.375 z" />
  <path
     style="fill:#000000;fill-rule:evenodd"
     inkscape:connector-curvature="0"
     id="path135"
     d="m 255.33894,388.55249 v 0 c 0,-4.25305 3.44775,-7.70081 7.70078,-7.70081 v 0 c 2.04238,0 4.00109,0.81134 5.44528,2.25553 1.44418,1.44415 2.25549,3.40289 2.25549,5.44528 v 0 c 0,4.25302 -3.44775,7.70078 -7.70077,7.70078 v 0 c -4.25303,0 -7.70078,-3.44776 -7.70078,-7.70078 z" />
  <path
     style="fill-rule:evenodd;stroke:#000000;stroke-width:1;stroke-linecap:butt;stroke-linejoin:round"
     inkscape:connector-curvature="0"
     id="path137"
     d="m 255.33894,388.55249 v 0 c 0,-4.25305 3.44775,-7.70081 7.70078,-7.70081 v 0 c 2.04238,0 4.00109,0.81134 5.44528,2.25553 1.44418,1.44415 2.25549,3.40289 2.25549,5.44528 v 0 c 0,4.25302 -3.44775,7.70078 -7.70077,7.70078 v 0 c -4.25303,0 -7.70078,-3.44776 -7.70078,-7.70078 z" />
  <path
     style="fill:#ffffff;fill-rule:evenodd"
     inkscape:connector-curvature="0"
     id="path139"
     d="m 300.07477,388.55249 v 0 c 0,-4.25305 3.44775,-7.70081 7.70078,-7.70081 v 0 c 2.04238,0 4.00109,0.81134 5.44528,2.25553 1.44418,1.44415 2.25552,3.40289 2.25552,5.44528 v 0 c 0,4.25302 -3.44775,7.70078 -7.7008,7.70078 v 0 c -4.25303,0 -7.70078,-3.44776 -7.70078,-7.70078 z" />
  <path
     style="fill-rule:evenodd;stroke:#000000;stroke-width:1;stroke-linecap:butt;stroke-linejoin:round"
     inkscape:connector-curvature="0"
     id="path141"
     d="m 300.07477,388.55249 v 0 c 0,-4.25305 3.44775,-7.70081 7.70078,-7.70081 v 0 c 2.04238,0 4.00109,0.81134 5.44528,2.25553 1.44418,1.44415 2.25552,3.40289 2.25552,5.44528 v 0 c 0,4.25302 -3.44775,7.70078 -7.7008,7.70078 v 0 c -4.25303,0 -7.70078,-3.44776 -7.70078,-7.70078 z" />
  <path
     style="fill:#ffffff;fill-rule:evenodd"
     inkscape:connector-curvature="0"
     id="path143"
     d="m 228.62699,412.07466 h 114.61417 v 40.59842 H 228.62699 Z" />
  <path
     style="fill-rule:evenodd;stroke:#000000;stroke-width:1;stroke-linecap:butt;stroke-linejoin:round"
     inkscape:connector-curvature="0"
     id="path145"
     d="m 228.62699,412.07466 h 114.61417 v 40.59842 H 228.62699 Z" />
  <path
     style="fill:#000000;fill-opacity:0;fill-rule:evenodd"
     inkscape:connector-curvature="0"
     id="path147"
     d="m 97.55146,412.27299 h 46.70866 v 40.59842 H 97.55146 Z" />
  <path
     style="fill:#000000;fill-rule:nonzero"
     inkscape:connector-curvature="0"
     id="path149"
     d="m 110.86396,434.07299 v -2.28125 h -4.14063 v -1.07812 l 4.34375,-6.1875 h 0.96875 v 6.1875 h 1.28125 v 1.07812 h -1.28125 v 2.28125 z m 0,-3.35937 v -4.29688 l -2.98438,4.29688 z m 3.52185,0.5 v -1.1875 h 3.59375 v 1.1875 z m 4.75087,0.65625 1.125,-0.10938 q 0.14063,0.79688 0.54688,1.15625 0.40625,0.35938 1.03125,0.35938 0.53125,0 0.9375,-0.25 0.42187,-0.25 0.67187,-0.65625 0.26563,-0.42188 0.4375,-1.125 0.17188,-0.70313 0.17188,-1.42188 0,-0.0781 0,-0.23437 -0.35938,0.54687 -0.96875,0.90625 -0.59375,0.34375 -1.3125,0.34375 -1.1875,0 -2.01563,-0.85938 -0.8125,-0.85937 -0.8125,-2.26562 0,-1.45313 0.85938,-2.32813 0.85937,-0.89062 2.14062,-0.89062 0.9375,0 1.70313,0.5 0.78125,0.5 1.17187,1.4375 0.40625,0.92187 0.40625,2.67187 0,1.82813 -0.40625,2.92188 -0.39062,1.07812 -1.17187,1.64062 -0.78125,0.5625 -1.84375,0.5625 -1.10938,0 -1.82813,-0.60937 -0.70312,-0.625 -0.84375,-1.75 z m 4.79688,-4.21875 q 0,-1 -0.54688,-1.59375 -0.53125,-0.59375 -1.28125,-0.59375 -0.78125,0 -1.375,0.64062 -0.57812,0.64063 -0.57812,1.65625 0,0.90625 0.54687,1.48438 0.5625,0.5625 1.35938,0.5625 0.82812,0 1.34375,-0.5625 0.53125,-0.57813 0.53125,-1.59375 z" />
  <path
     style="fill:#000000;fill-rule:evenodd"
     inkscape:connector-curvature="0"
     id="path151"
     d="m 256.67854,442.00532 v 0 c 0,-4.25302 3.44778,-7.70078 7.70081,-7.70078 v 0 c 2.04235,0 4.00109,0.81131 5.44528,2.2555 1.44415,1.44418 2.25549,3.40289 2.25549,5.44528 v 0 c 0,4.25302 -3.44775,7.70078 -7.70077,7.70078 v 0 c -4.25303,0 -7.70081,-3.44776 -7.70081,-7.70078 z" />
  <path
     style="fill-rule:evenodd;stroke:#000000;stroke-width:1;stroke-linecap:butt;stroke-linejoin:round"
     inkscape:connector-curvature="0"
     id="path153"
     d="m 256.67854,442.00532 v 0 c 0,-4.25302 3.44778,-7.70078 7.70081,-7.70078 v 0 c 2.04235,0 4.00109,0.81131 5.44528,2.2555 1.44415,1.44418 2.25549,3.40289 2.25549,5.44528 v 0 c 0,4.25302 -3.44775,7.70078 -7.70077,7.70078 v 0 c -4.25303,0 -7.70081,-3.44776 -7.70081,-7.70078 z" />
  <path
     style="fill:#ffffff;fill-rule:evenodd"
     inkscape:connector-curvature="0"
     id="path155"
     d="m 300.92384,442.00532 v 0 c 0,-4.25302 3.44775,-7.70078 7.70078,-7.70078 v 0 c 2.04238,0 4.00109,0.81131 5.44528,2.2555 1.44418,1.44418 2.25552,3.40289 2.25552,5.44528 v 0 c 0,4.25302 -3.44778,7.70078 -7.7008,7.70078 v 0 c -4.25303,0 -7.70078,-3.44776 -7.70078,-7.70078 z" />
  <path
     style="fill-rule:evenodd;stroke:#000000;stroke-width:1;stroke-linecap:butt;stroke-linejoin:round"
     inkscape:connector-curvature="0"
     id="path157"
     d="m 300.92384,442.00532 v 0 c 0,-4.25302 3.44775,-7.70078 7.70078,-7.70078 v 0 c 2.04238,0 4.00109,0.81131 5.44528,2.2555 1.44418,1.44418 2.25552,3.40289 2.25552,5.44528 v 0 c 0,4.25302 -3.44778,7.70078 -7.7008,7.70078 v 0 c -4.25303,0 -7.70078,-3.44776 -7.70078,-7.70078 z" />
  <path
     style="fill:#ffffff;fill-rule:evenodd"
     inkscape:connector-curvature="0"
     id="path159"
     d="m 251.77794,462.62181 h 114.61417 v 40.59842 H 251.77794 Z" />
  <path
     style="fill-rule:evenodd;stroke:#000000;stroke-width:1;stroke-linecap:butt;stroke-linejoin:round"
     inkscape:connector-curvature="0"
     id="path161"
     d="m 251.77794,462.62181 h 114.61417 v 40.59842 H 251.77794 Z" />
  <path
     style="fill:#000000;fill-opacity:0;fill-rule:evenodd"
     inkscape:connector-curvature="0"
     id="path163"
     d="m 97.55146,462.82014 h 46.70866 v 40.59845 H 97.55146 Z" />
  <path
     style="fill:#000000;fill-rule:nonzero"
     inkscape:connector-curvature="0"
     id="path165"
     d="m 107.09833,482.12013 1.23437,-0.10937 q 0.14063,0.90625 0.64063,1.35937 0.5,0.45313 1.20312,0.45313 0.84375,0 1.42188,-0.64063 0.59375,-0.64062 0.59375,-1.6875 0,-1 -0.5625,-1.57812 -0.5625,-0.59375 -1.48438,-0.59375 -0.5625,0 -1.01562,0.26562 -0.45313,0.25 -0.71875,0.67188 l -1.09375,-0.15625 0.92187,-4.89063 h 4.75 v 1.10938 h -3.8125 l -0.51562,2.5625 q 0.85937,-0.59375 1.79687,-0.59375 1.25,0 2.10938,0.875 0.85937,0.85937 0.85937,2.21875 0,1.29687 -0.75,2.23437 -0.92187,1.15625 -2.5,1.15625 -1.3125,0 -2.14062,-0.71875 -0.8125,-0.73437 -0.9375,-1.9375 z m 7.28748,-0.35937 v -1.1875 h 3.59375 v 1.1875 z m 8.98524,2.85937 h -1.17187 v -7.46875 q -0.42188,0.40625 -1.10938,0.8125 -0.6875,0.40625 -1.23437,0.60938 v -1.14063 q 0.98437,-0.45312 1.71875,-1.10937 0.73437,-0.67188 1.03125,-1.28125 h 0.76562 z m 2.9906,-4.70312 q 0,-1.6875 0.34375,-2.71875 0.35938,-1.03125 1.04688,-1.59375 0.6875,-0.5625 1.71875,-0.5625 0.78125,0 1.35937,0.3125 0.57813,0.29687 0.95313,0.89062 0.375,0.57813 0.59375,1.42188 0.21875,0.82812 0.21875,2.25 0,1.67187 -0.35938,2.70312 -0.34375,1.03125 -1.03125,1.59375 -0.67187,0.5625 -1.73437,0.5625 -1.375,0 -2.15625,-0.98437 -0.95313,-1.1875 -0.95313,-3.875 z m 1.20313,0 q 0,2.34375 0.54687,3.125 0.5625,0.78125 1.35938,0.78125 0.8125,0 1.35937,-0.78125 0.5625,-0.78125 0.5625,-3.125 0,-2.35938 -0.5625,-3.125 -0.54687,-0.78125 -1.35937,-0.78125 -0.8125,0 -1.29688,0.6875 -0.60937,0.875 -0.60937,3.21875 z" />
  <path
     style="fill:#000000;fill-rule:evenodd"
     inkscape:connector-curvature="0"
     id="path167"
     d="m 260.43326,492.55249 v 0 c 0,-4.25305 3.44775,-7.70081 7.70077,-7.70081 v 0 c 2.04239,0 4.0011,0.81134 5.44529,2.2555 1.44418,1.44421 2.25552,3.40295 2.25552,5.44531 v 0 c 0,4.25299 -3.44775,7.70074 -7.7008,7.70074 v 0 c -4.25303,0 -7.70078,-3.44775 -7.70078,-7.70074 z" />
  <path
     style="fill-rule:evenodd;stroke:#000000;stroke-width:1;stroke-linecap:butt;stroke-linejoin:round"
     inkscape:connector-curvature="0"
     id="path169"
     d="m 260.43326,492.55249 v 0 c 0,-4.25305 3.44775,-7.70081 7.70077,-7.70081 v 0 c 2.04239,0 4.0011,0.81134 5.44529,2.2555 1.44418,1.44421 2.25552,3.40295 2.25552,5.44531 v 0 c 0,4.25299 -3.44775,7.70074 -7.7008,7.70074 v 0 c -4.25303,0 -7.70078,-3.44775 -7.70078,-7.70074 z" />
  <path
     style="fill:#ffffff;fill-rule:evenodd"
     inkscape:connector-curvature="0"
     id="path171"
     d="m 301.28232,492.55249 v 0 c 0,-4.25305 3.44775,-7.70081 7.70077,-7.70081 v 0 c 2.04239,0 4.0011,0.81134 5.44529,2.2555 1.44418,1.44421 2.25552,3.40295 2.25552,5.44531 v 0 c 0,4.25299 -3.44778,7.70074 -7.7008,7.70074 v 0 c -4.25303,0 -7.70078,-3.44775 -7.70078,-7.70074 z" />
  <path
     style="fill-rule:evenodd;stroke:#000000;stroke-width:1;stroke-linecap:butt;stroke-linejoin:round"
     inkscape:connector-curvature="0"
     id="path173"
     d="m 301.28232,492.55249 v 0 c 0,-4.25305 3.44775,-7.70081 7.70077,-7.70081 v 0 c 2.04239,0 4.0011,0.81134 5.44529,2.2555 1.44418,1.44421 2.25552,3.40295 2.25552,5.44531 v 0 c 0,4.25299 -3.44778,7.70074 -7.7008,7.70074 v 0 c -4.25303,0 -7.70078,-3.44775 -7.70078,-7.70074 z" />
  <path
     style="fill:#000000;fill-rule:evenodd"
     inkscape:connector-curvature="0"
     id="path175"
     d="m 346.86722,473.15629 v 0 c 0,-4.25305 3.44775,-7.70078 7.70078,-7.70078 v 0 c 2.04238,0 4.00112,0.81131 5.44528,2.2555 1.44418,1.44418 2.25552,3.40292 2.25552,5.44528 v 0 c 0,4.25305 -3.44775,7.70081 -7.7008,7.70081 v 0 c -4.25303,0 -7.70078,-3.44776 -7.70078,-7.70081 z" />
  <path
     style="fill-rule:evenodd;stroke:#000000;stroke-width:1;stroke-linecap:butt;stroke-linejoin:round"
     inkscape:connector-curvature="0"
     id="path177"
     d="m 346.86722,473.15629 v 0 c 0,-4.25305 3.44775,-7.70078 7.70078,-7.70078 v 0 c 2.04238,0 4.00112,0.81131 5.44528,2.2555 1.44418,1.44418 2.25552,3.40292 2.25552,5.44528 v 0 c 0,4.25305 -3.44775,7.70081 -7.7008,7.70081 v 0 c -4.25303,0 -7.70078,-3.44776 -7.70078,-7.70081 z" />
  <path
     style="fill:#ffffff;fill-rule:evenodd"
     inkscape:connector-curvature="0"
     id="path179"
     d="m 273.72132,516.92369 h 114.61417 v 40.59839 H 273.72132 Z" />
  <path
     style="fill-rule:evenodd;stroke:#000000;stroke-width:1;stroke-linecap:butt;stroke-linejoin:round"
     inkscape:connector-curvature="0"
     id="path181"
     d="m 273.72132,516.92369 h 114.61417 v 40.59839 H 273.72132 Z" />
  <path
     style="fill:#000000;fill-opacity:0;fill-rule:evenodd"
     inkscape:connector-curvature="0"
     id="path183"
     d="m 95.00428,517.12202 h 46.70866 v 40.59845 H 95.00428 Z" />
  <path
     style="fill:#000000;fill-rule:nonzero"
     inkscape:connector-curvature="0"
     id="path185"
     d="m 110.62928,531.71895 -1.15625,0.0937 q -0.15625,-0.6875 -0.4375,-1 -0.48438,-0.5 -1.17188,-0.5 -0.5625,0 -0.98437,0.3125 -0.5625,0.39062 -0.89063,1.17187 -0.3125,0.76563 -0.3125,2.20313 0.42188,-0.64063 1.03125,-0.95313 0.60938,-0.3125 1.28125,-0.3125 1.17188,0 1.98438,0.85938 0.82812,0.85937 0.82812,2.23437 0,0.89063 -0.39062,1.67188 -0.375,0.76562 -1.0625,1.17187 -0.67188,0.40625 -1.53125,0.40625 -1.46875,0 -2.39063,-1.0625 -0.92187,-1.07812 -0.92187,-3.5625 0,-2.76562 1.01562,-4.01562 0.90625,-1.09375 2.40625,-1.09375 1.125,0 1.84375,0.64062 0.71875,0.625 0.85938,1.73438 z m -4.78125,4.10937 q 0,0.60938 0.25,1.17188 0.26562,0.54687 0.71875,0.84375 0.46875,0.28125 0.98437,0.28125 0.73438,0 1.26563,-0.59375 0.54687,-0.60938 0.54687,-1.64063 0,-0.98437 -0.53125,-1.54687 -0.53125,-0.57813 -1.32812,-0.57813 -0.79688,0 -1.35938,0.57813 -0.54687,0.5625 -0.54687,1.48437 z m 5.9906,0.23438 v -1.1875 h 3.59375 v 1.1875 z m 8.98525,2.85937 H 119.652 v -7.46875 q -0.42187,0.40625 -1.10937,0.8125 -0.6875,0.40625 -1.23438,0.60938 v -1.14063 q 0.98438,-0.45312 1.71875,-1.10937 0.73438,-0.67188 1.03125,-1.28125 h 0.76563 z m 6.42289,0 h -1.17187 v -7.46875 q -0.42188,0.40625 -1.10938,0.8125 -0.6875,0.40625 -1.23437,0.60938 v -1.14063 q 0.98437,-0.45312 1.71875,-1.10937 0.73437,-0.67188 1.03125,-1.28125 h 0.76562 z" />
  <path
     style="fill:#000000;fill-rule:evenodd"
     inkscape:connector-curvature="0"
     id="path187"
     d="m 348.43326,527.94874 v 0 c 0,-4.25305 3.44775,-7.70081 7.70077,-7.70081 v 0 c 2.04239,0 4.0011,0.81134 5.44529,2.2555 1.44418,1.44421 2.25552,3.40289 2.25552,5.44531 v 0 c 0,4.25299 -3.44775,7.70074 -7.7008,7.70074 v 0 c -4.25303,0 -7.70078,-3.44775 -7.70078,-7.70074 z" />
  <path
     style="fill-rule:evenodd;stroke:#000000;stroke-width:1;stroke-linecap:butt;stroke-linejoin:round"
     inkscape:connector-curvature="0"
     id="path189"
     d="m 348.43326,527.94874 v 0 c 0,-4.25305 3.44775,-7.70081 7.70077,-7.70081 v 0 c 2.04239,0 4.0011,0.81134 5.44529,2.2555 1.44418,1.44421 2.25552,3.40289 2.25552,5.44531 v 0 c 0,4.25299 -3.44775,7.70074 -7.7008,7.70074 v 0 c -4.25303,0 -7.70078,-3.44775 -7.70078,-7.70074 z" />
  <path
     style="fill:#ffffff;fill-rule:evenodd"
     inkscape:connector-curvature="0"
     id="path191"
     d="m 300.92384,546.85439 v 0 c 0,-4.25305 3.44775,-7.70081 7.70078,-7.70081 v 0 c 2.04238,0 4.00109,0.81134 5.44528,2.2555 1.44418,1.44421 2.25552,3.40295 2.25552,5.44531 v 0 c 0,4.25299 -3.44778,7.70081 -7.7008,7.70081 v 0 c -4.25303,0 -7.70078,-3.44782 -7.70078,-7.70081 z" />
  <path
     style="fill-rule:evenodd;stroke:#000000;stroke-width:1;stroke-linecap:butt;stroke-linejoin:round"
     inkscape:connector-curvature="0"
     id="path193"
     d="m 300.92384,546.85439 v 0 c 0,-4.25305 3.44775,-7.70081 7.70078,-7.70081 v 0 c 2.04238,0 4.00109,0.81134 5.44528,2.2555 1.44418,1.44421 2.25552,3.40295 2.25552,5.44531 v 0 c 0,4.25299 -3.44778,7.70081 -7.7008,7.70081 v 0 c -4.25303,0 -7.70078,-3.44782 -7.70078,-7.70081 z" />
  <path
     style="fill:#ffffff;fill-rule:evenodd"
     inkscape:connector-curvature="0"
     id="path195"
     d="m 297.72132,571.22559 h 114.6142 v 40.59845 h -114.6142 z" />
  <path
     style="fill-rule:evenodd;stroke:#000000;stroke-width:1;stroke-linecap:butt;stroke-linejoin:round"
     inkscape:connector-curvature="0"
     id="path197"
     d="m 297.72132,571.22559 h 114.6142 v 40.59845 h -114.6142 z" />
  <path
     style="fill:#000000;fill-opacity:0;fill-rule:evenodd"
     inkscape:connector-curvature="0"
     id="path199"
     d="m 95.00428,571.42389 h 46.70866 v 40.59845 H 95.00428 Z" />
  <path
     style="fill:#000000;fill-rule:nonzero"
     inkscape:connector-curvature="0"
     id="path201"
     d="m 104.62928,584.92709 v -1.125 h 6.1875 v 0.92188 q -0.92188,0.96875 -1.8125,2.57812 -0.89063,1.59375 -1.375,3.29688 -0.35938,1.20312 -0.45313,2.625 h -1.20312 q 0.0156,-1.125 0.4375,-2.71875 0.42187,-1.59375 1.20312,-3.07813 0.79688,-1.48437 1.6875,-2.5 z m 7.20935,5.4375 v -1.1875 h 3.59375 v 1.1875 z m 8.98525,2.85938 H 119.652 v -7.46875 q -0.42187,0.40625 -1.10937,0.8125 -0.6875,0.40625 -1.23438,0.60937 v -1.14062 q 0.98438,-0.45313 1.71875,-1.10938 0.73438,-0.67187 1.03125,-1.28125 h 0.76563 z m 9.14685,-1.125 v 1.125 h -6.29688 q -0.0156,-0.42188 0.14063,-0.8125 0.23437,-0.64063 0.76562,-1.26563 0.53125,-0.625 1.53125,-1.45312 1.5625,-1.26563 2.10938,-2.01563 0.54687,-0.75 0.54687,-1.40625 0,-0.70312 -0.5,-1.17187 -0.5,-0.48438 -1.29687,-0.48438 -0.85938,0 -1.375,0.51563 -0.5,0.5 -0.5,1.39062 l -1.20313,-0.10937 q 0.125,-1.35938 0.92188,-2.0625 0.8125,-0.70313 2.17187,-0.70313 1.375,0 2.17188,0.76563 0.8125,0.75 0.8125,1.875 0,0.57812 -0.23438,1.14062 -0.23437,0.54688 -0.78125,1.15625 -0.54687,0.60938 -1.8125,1.67188 -1.04687,0.89062 -1.35937,1.21875 -0.29688,0.3125 -0.48438,0.625 z" />
  <path
     style="fill:#000000;fill-rule:evenodd"
     inkscape:connector-curvature="0"
     id="path203"
     d="m 348.43326,582.25062 v 0 c 0,-4.25305 3.44775,-7.70081 7.70077,-7.70081 v 0 c 2.04239,0 4.0011,0.81134 5.44529,2.2555 1.44418,1.44421 2.25552,3.40289 2.25552,5.44531 v 0 c 0,4.25299 -3.44775,7.70074 -7.7008,7.70074 v 0 c -4.25303,0 -7.70078,-3.44775 -7.70078,-7.70074 z" />
  <path
     style="fill-rule:evenodd;stroke:#000000;stroke-width:1;stroke-linecap:butt;stroke-linejoin:round"
     inkscape:connector-curvature="0"
     id="path205"
     d="m 348.43326,582.25062 v 0 c 0,-4.25305 3.44775,-7.70081 7.70077,-7.70081 v 0 c 2.04239,0 4.0011,0.81134 5.44529,2.2555 1.44418,1.44421 2.25552,3.40289 2.25552,5.44531 v 0 c 0,4.25299 -3.44775,7.70074 -7.7008,7.70074 v 0 c -4.25303,0 -7.70078,-3.44775 -7.70078,-7.70074 z" />
  <path
     style="fill:#ffffff;fill-rule:evenodd"
     inkscape:connector-curvature="0"
     id="path207"
     d="m 303.85124,601.15629 v 0 c 0,-4.25305 3.44778,-7.70081 7.70081,-7.70081 v 0 c 2.04235,0 4.00109,0.81134 5.44528,2.25556 1.44418,1.44415 2.25549,3.40289 2.25549,5.44525 v 0 c 0,4.25305 -3.44775,7.70081 -7.70077,7.70081 v 0 c -4.25303,0 -7.70081,-3.44776 -7.70081,-7.70081 z" />
  <path
     style="fill-rule:evenodd;stroke:#000000;stroke-width:1;stroke-linecap:butt;stroke-linejoin:round"
     inkscape:connector-curvature="0"
     id="path209"
     d="m 303.85124,601.15629 v 0 c 0,-4.25305 3.44778,-7.70081 7.70081,-7.70081 v 0 c 2.04235,0 4.00109,0.81134 5.44528,2.25556 1.44418,1.44415 2.25549,3.40289 2.25549,5.44525 v 0 c 0,4.25305 -3.44775,7.70081 -7.70077,7.70081 v 0 c -4.25303,0 -7.70081,-3.44776 -7.70081,-7.70081 z" />
  <path
     style="fill:#ffffff;fill-rule:evenodd"
     inkscape:connector-curvature="0"
     id="path211"
     d="m 326.32508,627.22559 h 114.6142 v 40.59845 h -114.6142 z" />
  <path
     style="fill-rule:evenodd;stroke:#000000;stroke-width:1;stroke-linecap:butt;stroke-linejoin:round"
     inkscape:connector-curvature="0"
     id="path213"
     d="m 326.32508,627.22559 h 114.6142 v 40.59845 h -114.6142 z" />
  <path
     style="fill:#000000;fill-opacity:0;fill-rule:evenodd"
     inkscape:connector-curvature="0"
     id="path215"
     d="m 95.00428,627.42389 h 46.70866 v 40.59845 H 95.00428 Z" />
  <path
     style="fill:#000000;fill-rule:nonzero"
     inkscape:connector-curvature="0"
     id="path217"
     d="m 106.36365,644.05209 q -0.73438,-0.26562 -1.09375,-0.76562 -0.34375,-0.5 -0.34375,-1.1875 0,-1.03125 0.75,-1.73438 0.75,-0.71875 1.98437,-0.71875 1.25,0 2.01563,0.73438 0.76562,0.71875 0.76562,1.75 0,0.67187 -0.35937,1.17187 -0.34375,0.48438 -1.04688,0.75 0.875,0.28125 1.32813,0.92188 0.46875,0.64062 0.46875,1.51562 0,1.23438 -0.875,2.0625 -0.85938,0.82813 -2.26563,0.82813 -1.42187,0 -2.28125,-0.82813 -0.85937,-0.84375 -0.85937,-2.09375 0,-0.92187 0.46875,-1.54687 0.46875,-0.64063 1.34375,-0.85938 z m -0.23438,-1.98437 q 0,0.67187 0.4375,1.10937 0.4375,0.42188 1.125,0.42188 0.67188,0 1.10938,-0.42188 0.4375,-0.42187 0.4375,-1.04687 0,-0.64063 -0.45313,-1.07813 -0.4375,-0.4375 -1.10937,-0.4375 -0.67188,0 -1.10938,0.4375 -0.4375,0.42188 -0.4375,1.01563 z m -0.375,4.40625 q 0,0.5 0.23438,0.96875 0.23437,0.46875 0.70312,0.73437 0.46875,0.25 1.01563,0.25 0.82812,0 1.375,-0.53125 0.54687,-0.54687 0.54687,-1.39062 0,-0.84375 -0.5625,-1.39063 -0.5625,-0.5625 -1.40625,-0.5625 -0.82812,0 -1.375,0.54688 -0.53125,0.54687 -0.53125,1.375 z m 6.08436,-0.10938 v -1.1875 h 3.59375 v 1.1875 z m 8.98524,2.85938 H 119.652 v -7.46875 q -0.42188,0.40625 -1.10938,0.8125 -0.6875,0.40625 -1.23437,0.60937 v -1.14062 q 0.98437,-0.45313 1.71875,-1.10938 0.73437,-0.67187 1.03125,-1.28125 h 0.76562 z m 3.00623,-2.51563 1.17187,-0.15625 q 0.20313,1 0.6875,1.4375 0.48438,0.4375 1.17188,0.4375 0.82812,0 1.39062,-0.57812 0.57813,-0.57813 0.57813,-1.42188 0,-0.79687 -0.53125,-1.3125 -0.51563,-0.53125 -1.32813,-0.53125 -0.34375,0 -0.82812,0.125 l 0.125,-1.03125 q 0.125,0.0156 0.1875,0.0156 0.75,0 1.34375,-0.39063 0.60937,-0.39062 0.60937,-1.20312 0,-0.64063 -0.4375,-1.0625 -0.4375,-0.42188 -1.125,-0.42188 -0.6875,0 -1.14062,0.4375 -0.45313,0.42188 -0.59375,1.28125 l -1.17188,-0.21875 q 0.21875,-1.17187 0.98438,-1.8125 0.76562,-0.65625 1.89062,-0.65625 0.78125,0 1.4375,0.34375 0.65625,0.32813 1,0.90625 0.35938,0.57813 0.35938,1.23438 0,0.60937 -0.34375,1.125 -0.32813,0.5 -0.96875,0.79687 0.84375,0.20313 1.3125,0.82813 0.46875,0.60937 0.46875,1.53125 0,1.25 -0.92188,2.125 -0.90625,0.85937 -2.29687,0.85937 -1.25,0 -2.09375,-0.75 -0.82813,-0.75 -0.9375,-1.9375 z" />
  <path
     style="fill:#000000;fill-rule:evenodd"
     inkscape:connector-curvature="0"
     id="path219"
     d="m 350.51164,646.25062 v 0 c 0,-4.25305 3.44775,-7.70081 7.70078,-7.70081 v 0 c 2.04238,0 4.00109,0.81134 5.44528,2.2555 1.44418,1.44421 2.25549,3.40289 2.25549,5.44531 v 0 c 0,4.25299 -3.44775,7.70074 -7.70077,7.70074 v 0 c -4.25303,0 -7.70078,-3.44775 -7.70078,-7.70074 z" />
  <path
     style="fill-rule:evenodd;stroke:#000000;stroke-width:1;stroke-linecap:butt;stroke-linejoin:round"
     inkscape:connector-curvature="0"
     id="path221"
     d="m 350.51164,646.25062 v 0 c 0,-4.25305 3.44775,-7.70081 7.70078,-7.70081 v 0 c 2.04238,0 4.00109,0.81134 5.44528,2.2555 1.44418,1.44421 2.25549,3.40289 2.25549,5.44531 v 0 c 0,4.25299 -3.44775,7.70074 -7.70077,7.70074 v 0 c -4.25303,0 -7.70078,-3.44775 -7.70078,-7.70074 z" />
  <path
     style="fill:#ffffff;fill-rule:evenodd"
     inkscape:connector-curvature="0"
     id="path223"
     d="m 409.39554,638.25062 v 0 c 0,-4.25305 3.44775,-7.70081 7.70081,-7.70081 v 0 c 2.04235,0 4.00109,0.81134 5.44525,2.2555 1.44421,1.44421 2.25555,3.40289 2.25555,5.44531 v 0 c 0,4.25299 -3.44781,7.70074 -7.7008,7.70074 v 0 c -4.25306,0 -7.70081,-3.44775 -7.70081,-7.70074 z" />
  <path
     style="fill-rule:evenodd;stroke:#000000;stroke-width:1;stroke-linecap:butt;stroke-linejoin:round"
     inkscape:connector-curvature="0"
     id="path225"
     d="m 409.39554,638.25062 v 0 c 0,-4.25305 3.44775,-7.70081 7.70081,-7.70081 v 0 c 2.04235,0 4.00109,0.81134 5.44525,2.2555 1.44421,1.44421 2.25555,3.40289 2.25555,5.44531 v 0 c 0,4.25299 -3.44781,7.70074 -7.7008,7.70074 v 0 c -4.25306,0 -7.70081,-3.44775 -7.70081,-7.70074 z" />
  <path
     style="fill:#000000;fill-opacity:0;fill-rule:evenodd"
     inkscape:connector-curvature="0"
     id="path227"
     d="m 95.00428,683.42389 h 46.70866 v 40.59845 H 95.00428 Z" />
  <path
     style="fill:#000000;fill-rule:nonzero"
     inkscape:connector-curvature="0"
     id="path229"
     d="m 104.73865,703.02083 1.125,-0.10938 q 0.14062,0.79688 0.54687,1.15625 0.40625,0.35938 1.03125,0.35938 0.53125,0 0.9375,-0.25 0.42188,-0.25 0.67188,-0.65625 0.26562,-0.42188 0.4375,-1.125 0.17187,-0.70313 0.17187,-1.42188 0,-0.0781 0,-0.23437 -0.35937,0.54687 -0.96875,0.90625 -0.59375,0.34375 -1.3125,0.34375 -1.1875,0 -2.01562,-0.85938 -0.8125,-0.85937 -0.8125,-2.26562 0,-1.45313 0.85937,-2.32813 0.85938,-0.89062 2.14063,-0.89062 0.9375,0 1.70312,0.5 0.78125,0.5 1.17188,1.4375 0.40625,0.92187 0.40625,2.67187 0,1.82813 -0.40625,2.92188 -0.39063,1.07812 -1.17188,1.64062 -0.78125,0.5625 -1.84375,0.5625 -1.10937,0 -1.82812,-0.60937 -0.70313,-0.625 -0.84375,-1.75 z m 4.79687,-4.21875 q 0,-1 -0.54687,-1.59375 -0.53125,-0.59375 -1.28125,-0.59375 -0.78125,0 -1.375,0.64062 -0.57813,0.64063 -0.57813,1.65625 0,0.90625 0.54688,1.48438 0.5625,0.5625 1.35937,0.5625 0.82813,0 1.34375,-0.5625 0.53125,-0.57813 0.53125,-1.59375 z m 2.30311,3.5625 v -1.1875 h 3.59375 v 1.1875 z m 8.98524,2.85937 H 119.652 v -7.46875 q -0.42188,0.40625 -1.10938,0.8125 -0.6875,0.40625 -1.23437,0.60938 v -1.14063 q 0.98437,-0.45312 1.71875,-1.10937 0.73437,-0.67188 1.03125,-1.28125 h 0.76562 z m 6.75623,0 v -2.28125 h -4.14063 v -1.07812 l 4.34375,-6.1875 h 0.96875 v 6.1875 h 1.28125 v 1.07812 h -1.28125 v 2.28125 z m 0,-3.35937 v -4.29688 l -2.98438,4.29688 z" />
  <path
     style="fill:#ffffff;fill-rule:evenodd"
     inkscape:connector-curvature="0"
     id="path231"
     d="m 345.58924,682.73499 h 114.6142 v 40.59845 h -114.6142 z" />
  <path
     style="fill-rule:evenodd;stroke:#000000;stroke-width:1;stroke-linecap:butt;stroke-linejoin:round"
     inkscape:connector-curvature="0"
     id="path233"
     d="m 345.58924,682.73499 h 114.6142 v 40.59845 h -114.6142 z" />
  <path
     style="fill:#000000;fill-rule:evenodd"
     inkscape:connector-curvature="0"
     id="path235"
     d="m 352.32004,708.55249 v 0 c 0,-4.25305 3.44778,-7.70081 7.70081,-7.70081 v 0 c 2.04235,0 4.00109,0.81134 5.44528,2.2555 1.44415,1.44421 2.25549,3.40295 2.25549,5.44531 v 0 c 0,4.25299 -3.44775,7.70074 -7.70077,7.70074 v 0 c -4.25303,0 -7.70081,-3.44775 -7.70081,-7.70074 z" />
  <path
     style="fill-rule:evenodd;stroke:#000000;stroke-width:1;stroke-linecap:butt;stroke-linejoin:round"
     inkscape:connector-curvature="0"
     id="path237"
     d="m 352.32004,708.55249 v 0 c 0,-4.25305 3.44778,-7.70081 7.70081,-7.70081 v 0 c 2.04235,0 4.00109,0.81134 5.44528,2.2555 1.44415,1.44421 2.25549,3.40295 2.25549,5.44531 v 0 c 0,4.25299 -3.44775,7.70074 -7.70077,7.70074 v 0 c -4.25303,0 -7.70081,-3.44775 -7.70081,-7.70074 z" />
  <path
     style="fill:#ffffff;fill-rule:evenodd"
     inkscape:connector-curvature="0"
     id="path239"
     d="m 412.79174,700.55249 v 0 c 0,-4.25305 3.44775,-7.70081 7.70081,-7.70081 v 0 c 2.04235,0 4.00109,0.81134 5.44525,2.2555 1.44421,1.44421 2.25549,3.40295 2.25549,5.44531 v 0 c 0,4.25299 -3.44775,7.70074 -7.70074,7.70074 v 0 c -4.25306,0 -7.70081,-3.44775 -7.70081,-7.70074 z" />
  <path
     style="fill-rule:evenodd;stroke:#000000;stroke-width:1;stroke-linecap:butt;stroke-linejoin:round"
     inkscape:connector-curvature="0"
     id="path241"
     d="m 412.79174,700.55249 v 0 c 0,-4.25305 3.44775,-7.70081 7.70081,-7.70081 v 0 c 2.04235,0 4.00109,0.81134 5.44525,2.2555 1.44421,1.44421 2.25549,3.40295 2.25549,5.44531 v 0 c 0,4.25299 -3.44775,7.70074 -7.70074,7.70074 v 0 c -4.25306,0 -7.70081,-3.44775 -7.70081,-7.70074 z" />
  <path
     style="fill:#ffffff;fill-rule:evenodd"
     inkscape:connector-curvature="0"
     id="path243"
     d="m 367.17414,737.16902 h 114.6142 v 40.59839 h -114.6142 z" />
  <path
     style="fill-rule:evenodd;stroke:#000000;stroke-width:1;stroke-linecap:butt;stroke-linejoin:round"
     inkscape:connector-curvature="0"
     id="path245"
     d="m 367.17414,737.16902 h 114.6142 v 40.59839 h -114.6142 z" />
  <path
     style="fill:#000000;fill-opacity:0;fill-rule:evenodd"
     inkscape:connector-curvature="0"
     id="path247"
     d="m 89.53937,739.42499 h 57.6378 v 40.59845 h -57.6378 z" />
  <path
     style="fill:#000000;fill-rule:nonzero"
     inkscape:connector-curvature="0"
     id="path249"
     d="m 103.50812,761.22505 h -1.17188 v -7.46875 q -0.42187,0.40625 -1.10937,0.8125 -0.6875,0.40625 -1.23438,0.60938 v -1.14063 q 0.98438,-0.45312 1.71875,-1.10937 0.73438,-0.67188 1.03125,-1.28125 h 0.76563 z m 2.9906,-4.70312 q 0,-1.6875 0.34375,-2.71875 0.35938,-1.03125 1.04688,-1.59375 0.6875,-0.5625 1.71875,-0.5625 0.78125,0 1.35937,0.3125 0.57813,0.29687 0.95313,0.89062 0.375,0.57813 0.59375,1.42188 0.21875,0.82812 0.21875,2.25 0,1.67187 -0.35938,2.70312 -0.34375,1.03125 -1.03125,1.59375 -0.67187,0.5625 -1.73437,0.5625 -1.375,0 -2.15625,-0.98437 -0.95313,-1.1875 -0.95313,-3.875 z m 1.20313,0 q 0,2.34375 0.54687,3.125 0.5625,0.78125 1.35938,0.78125 0.8125,0 1.35937,-0.78125 0.5625,-0.78125 0.5625,-3.125 0,-2.35938 -0.5625,-3.125 -0.54687,-0.78125 -1.35937,-0.78125 -0.8125,0 -1.29688,0.6875 -0.60937,0.875 -0.60937,3.21875 z m 6.08435,1.84375 v -1.1875 h 3.59375 v 1.1875 z m 8.98524,2.85937 h -1.17187 v -7.46875 q -0.42188,0.40625 -1.10938,0.8125 -0.6875,0.40625 -1.23437,0.60938 v -1.14063 q 0.98437,-0.45312 1.71875,-1.10937 0.73437,-0.67188 1.03125,-1.28125 h 0.76562 z m 2.9906,-2.5 1.23438,-0.10937 q 0.14062,0.90625 0.64062,1.35937 0.5,0.45313 1.20313,0.45313 0.84375,0 1.42187,-0.64063 0.59375,-0.64062 0.59375,-1.6875 0,-1 -0.5625,-1.57812 -0.5625,-0.59375 -1.48437,-0.59375 -0.5625,0 -1.01563,0.26562 -0.45312,0.25 -0.71875,0.67188 l -1.09375,-0.15625 0.92188,-4.89063 h 4.75 v 1.10938 h -3.8125 l -0.51563,2.5625 q 0.85938,-0.59375 1.79688,-0.59375 1.25,0 2.10937,0.875 0.85938,0.85937 0.85938,2.21875 0,1.29687 -0.75,2.23437 -0.92188,1.15625 -2.5,1.15625 -1.3125,0 -2.14063,-0.71875 -0.8125,-0.73437 -0.9375,-1.9375 z" />
  <path
     style="fill:#ffffff;fill-rule:evenodd"
     inkscape:connector-curvature="0"
     id="path251"
     d="m 414.48987,748.55249 v 0 c 0,-4.25305 3.44775,-7.70081 7.70081,-7.70081 v 0 c 2.04235,0 4.00109,0.81134 5.44525,2.2555 1.44415,1.44421 2.25549,3.40295 2.25549,5.44531 v 0 c 0,4.25299 -3.44775,7.70074 -7.70074,7.70074 v 0 c -4.25306,0 -7.70081,-3.44775 -7.70081,-7.70074 z" />
  <path
     style="fill-rule:evenodd;stroke:#000000;stroke-width:1;stroke-linecap:butt;stroke-linejoin:round"
     inkscape:connector-curvature="0"
     id="path253"
     d="m 414.48987,748.55249 v 0 c 0,-4.25305 3.44775,-7.70081 7.70081,-7.70081 v 0 c 2.04235,0 4.00109,0.81134 5.44525,2.2555 1.44415,1.44421 2.25549,3.40295 2.25549,5.44531 v 0 c 0,4.25299 -3.44775,7.70074 -7.70074,7.70074 v 0 c -4.25306,0 -7.70081,-3.44775 -7.70081,-7.70074 z" />
  <path
     style="fill:#000000;fill-opacity:0;fill-rule:evenodd"
     inkscape:connector-curvature="0"
     id="path255"
     d="m 362.98661,175.70592 h 96.78738 v 40.59842 h -96.78738 z" />
  <path
     style="fill:#000000;fill-rule:nonzero"
     inkscape:connector-curvature="0"
     id="path257"
     d="m 376.14286,200.06592 v -10.10938 h -3.78125 v -1.34375 h 9.07812 v 1.34375 h -3.78125 v 10.10938 z m 6.08594,-9.84375 v -1.60938 h 1.40625 v 1.60938 z m 0,9.84375 v -8.29688 h 1.40625 v 8.29688 z m 3.55468,0 v -8.29688 h 1.25 v 1.15625 q 0.39063,-0.60937 1.03125,-0.96875 0.65625,-0.375 1.48438,-0.375 0.92187,0 1.51562,0.39063 0.59375,0.375 0.82813,1.0625 0.98437,-1.45313 2.5625,-1.45313 1.23437,0 1.89062,0.6875 0.67188,0.67188 0.67188,2.09375 v 5.70313 h -1.39063 v -5.23438 q 0,-0.84375 -0.14062,-1.20312 -0.14063,-0.375 -0.5,-0.59375 -0.35938,-0.23438 -0.84375,-0.23438 -0.875,0 -1.45313,0.57813 -0.57812,0.57812 -0.57812,1.85937 v 4.82813 h -1.40625 v -5.39063 q 0,-0.9375 -0.34375,-1.40625 -0.34375,-0.46875 -1.125,-0.46875 -0.59375,0 -1.09375,0.3125 -0.5,0.3125 -0.73438,0.92188 -0.21875,0.59375 -0.21875,1.71875 v 4.3125 z m 19,-2.67188 1.45313,0.17188 q -0.34375,1.28125 -1.28125,1.98437 -0.92188,0.70313 -2.35938,0.70313 -1.82812,0 -2.89062,-1.125 -1.0625,-1.125 -1.0625,-3.14063 0,-2.09375 1.07812,-3.25 1.07813,-1.15625 2.79688,-1.15625 1.65625,0 2.70312,1.14063 1.0625,1.125 1.0625,3.17187 0,0.125 0,0.375 h -6.1875 q 0.0781,1.375 0.76563,2.10938 0.70312,0.71875 1.73437,0.71875 0.78125,0 1.32813,-0.40625 0.54687,-0.40625 0.85937,-1.29688 z m -4.60937,-2.28125 h 4.625 q -0.0937,-1.04687 -0.53125,-1.5625 -0.67188,-0.8125 -1.73438,-0.8125 -0.96875,0 -1.64062,0.65625 -0.65625,0.64063 -0.71875,1.71875 z" />
</svg>
