<?xml version="1.0" encoding="UTF-8" standalone="no"?>
<svg
   xmlns:dc="http://purl.org/dc/elements/1.1/"
   xmlns:cc="http://creativecommons.org/ns#"
   xmlns:rdf="http://www.w3.org/1999/02/22-rdf-syntax-ns#"
   xmlns:svg="http://www.w3.org/2000/svg"
   xmlns="http://www.w3.org/2000/svg"
   xmlns:sodipodi="http://sodipodi.sourceforge.net/DTD/sodipodi-0.dtd"
   xmlns:inkscape="http://www.inkscape.org/namespaces/inkscape"
   version="1.1"
   viewBox="0 0 387.28753 263.01758"
   stroke-miterlimit="10"
   id="svg121"
   sodipodi:docname="timeseries-resample-windows.svg"
   width="387.28754"
   height="263.01758"
   style="fill:none;stroke:none;stroke-linecap:square;stroke-miterlimit:10"
   inkscape:version="0.92.5 (2060ec1f9f, 2020-04-08)"
   inkscape:export-filename="/media/wassname/Storage5/projects2/3ST/deep_ml_curriculum/notebooks/b06_Time_Series_Analysis/img/timeseries-resample-windows.png"
   inkscape:export-xdpi="206.14557"
   inkscape:export-ydpi="206.14557">
  <metadata
     id="metadata127">
    <rdf:RDF>
      <cc:Work
         rdf:about="">
        <dc:format>image/svg+xml</dc:format>
        <dc:type
           rdf:resource="http://purl.org/dc/dcmitype/StillImage" />
        <dc:title></dc:title>
      </cc:Work>
    </rdf:RDF>
  </metadata>
  <defs
     id="defs125" />
  <sodipodi:namedview
     pagecolor="#ffffff"
     bordercolor="#666666"
     borderopacity="1"
     objecttolerance="10"
     gridtolerance="10"
     guidetolerance="10"
     inkscape:pageopacity="0"
     inkscape:pageshadow="2"
     inkscape:window-width="1920"
     inkscape:window-height="1030"
     id="namedview123"
     showgrid="false"
     fit-margin-top="10"
     fit-margin-left="10"
     fit-margin-right="10"
     fit-margin-bottom="20"
     inkscape:zoom="1.2830495"
     inkscape:cx="42.841845"
     inkscape:cy="149.00847"
     inkscape:window-x="0"
     inkscape:window-y="0"
     inkscape:window-maximized="1"
     inkscape:current-layer="svg121" />
  <clipPath
     id="p.0">
    <path
       d="M 0,0 H 960 V 720 H 0 Z"
       id="path2"
       inkscape:connector-curvature="0"
       style="clip-rule:nonzero" />
  </clipPath>
  <path
     style="fill:#000000;fill-opacity:0;fill-rule:evenodd"
     inkscape:connector-curvature="0"
     id="path11"
     d="m 24.9712,111.55431 342.45667,0.12599" />
  <path
     style="fill-rule:evenodd;stroke:#000000;stroke-width:1;stroke-linecap:butt;stroke-linejoin:round"
     inkscape:connector-curvature="0"
     id="path13"
     d="m 24.9712,111.55431 342.45667,0.12599" />
  <path
     style="fill:#000000;fill-opacity:0;fill-rule:evenodd"
     inkscape:connector-curvature="0"
     id="path15"
     d="m 23.0447,102.89028 v 23.08661" />
  <path
     style="fill-rule:evenodd;stroke:#000000;stroke-width:1;stroke-linecap:butt;stroke-linejoin:round"
     inkscape:connector-curvature="0"
     id="path17"
     d="m 23.0447,102.89028 v 23.08661" />
  <path
     style="fill:#000000;fill-opacity:0;fill-rule:evenodd"
     inkscape:connector-curvature="0"
     id="path19"
     d="m 136.96979,102.22717 v 23.08661" />
  <path
     style="fill-rule:evenodd;stroke:#000000;stroke-width:1;stroke-linecap:butt;stroke-linejoin:round"
     inkscape:connector-curvature="0"
     id="path21"
     d="m 136.96979,102.22717 v 23.08661" />
  <path
     style="fill:#000000;fill-opacity:0;fill-rule:evenodd"
     inkscape:connector-curvature="0"
     id="path23"
     d="m 254.08209,102.22717 v 23.08661" />
  <path
     style="fill-rule:evenodd;stroke:#000000;stroke-width:1;stroke-linecap:butt;stroke-linejoin:round"
     inkscape:connector-curvature="0"
     id="path25"
     d="m 254.08209,102.22717 v 23.08661" />
  <path
     style="fill:#000000;fill-opacity:0;fill-rule:evenodd"
     inkscape:connector-curvature="0"
     id="path27"
     d="m 368.00719,101.2646 v 23.08661" />
  <path
     style="fill-rule:evenodd;stroke:#000000;stroke-width:1;stroke-linecap:butt;stroke-linejoin:round"
     inkscape:connector-curvature="0"
     id="path29"
     d="m 368.00719,101.2646 v 23.08661" />
  <path
     style="fill:#000000;fill-rule:evenodd"
     inkscape:connector-curvature="0"
     id="path31"
     d="m 34.2955,87.49132 v 0 c 0,-4.25302 3.4478,-7.70079 7.7008,-7.70079 v 0 c 2.0424,0 4.0011,0.81134 5.4453,2.25551 1.4442,1.44418 2.2555,3.40291 2.2555,5.44528 v 0 c 0,4.25304 -3.4478,7.70079 -7.7008,7.70079 v 0 c -4.253,0 -7.7008,-3.44775 -7.7008,-7.70079 z" />
  <path
     style="fill-rule:evenodd;stroke:#000000;stroke-width:1;stroke-linecap:butt;stroke-linejoin:round"
     inkscape:connector-curvature="0"
     id="path33"
     d="m 34.2955,87.49132 v 0 c 0,-4.25302 3.4478,-7.70079 7.7008,-7.70079 v 0 c 2.0424,0 4.0011,0.81134 5.4453,2.25551 1.4442,1.44418 2.2555,3.40291 2.2555,5.44528 v 0 c 0,4.25304 -3.4478,7.70079 -7.7008,7.70079 v 0 c -4.253,0 -7.7008,-3.44775 -7.7008,-7.70079 z" />
  <path
     style="fill:#ffffff;fill-rule:evenodd"
     inkscape:connector-curvature="0"
     id="path35"
     d="m 82.2955,79.49132 v 0 c 0,-4.25302 3.4478,-7.70079 7.7008,-7.70079 v 0 c 2.0424,0 4.0011,0.81134 5.4453,2.25551 1.4442,1.44418 2.2555,3.40291 2.2555,5.44528 v 0 c 0,4.25304 -3.4478,7.70079 -7.7008,7.70079 v 0 c -4.253,0 -7.7008,-3.44775 -7.7008,-7.70079 z" />
  <path
     style="fill-rule:evenodd;stroke:#000000;stroke-width:1;stroke-linecap:butt;stroke-linejoin:round"
     inkscape:connector-curvature="0"
     id="path37"
     d="m 82.2955,79.49132 v 0 c 0,-4.25302 3.4478,-7.70079 7.7008,-7.70079 v 0 c 2.0424,0 4.0011,0.81134 5.4453,2.25551 1.4442,1.44418 2.2555,3.40291 2.2555,5.44528 v 0 c 0,4.25304 -3.4478,7.70079 -7.7008,7.70079 v 0 c -4.253,0 -7.7008,-3.44775 -7.7008,-7.70079 z" />
  <path
     style="fill:#000000;fill-rule:evenodd"
     inkscape:connector-curvature="0"
     id="path39"
     d="m 146.29551,95.49132 v 0 c 0,-4.25302 3.44775,-7.70079 7.70077,-7.70079 v 0 c 2.04239,0 4.0011,0.81134 5.44529,2.25551 1.44418,1.44418 2.25552,3.40291 2.25552,5.44528 v 0 c 0,4.25304 -3.44775,7.70079 -7.7008,7.70079 v 0 c -4.25303,0 -7.70078,-3.44775 -7.70078,-7.70079 z" />
  <path
     style="fill-rule:evenodd;stroke:#000000;stroke-width:1;stroke-linecap:butt;stroke-linejoin:round"
     inkscape:connector-curvature="0"
     id="path41"
     d="m 146.29551,95.49132 v 0 c 0,-4.25302 3.44775,-7.70079 7.70077,-7.70079 v 0 c 2.04239,0 4.0011,0.81134 5.44529,2.25551 1.44418,1.44418 2.25552,3.40291 2.25552,5.44528 v 0 c 0,4.25304 -3.44775,7.70079 -7.7008,7.70079 v 0 c -4.25303,0 -7.70078,-3.44775 -7.70078,-7.70079 z" />
  <path
     style="fill:#ffffff;fill-rule:evenodd"
     inkscape:connector-curvature="0"
     id="path43"
     d="m 185.93702,95.49132 v 0 c 0,-4.25302 3.44775,-7.70079 7.70078,-7.70079 v 0 c 2.04238,0 4.00109,0.81134 5.44528,2.25551 1.44418,1.44418 2.25552,3.40291 2.25552,5.44528 v 0 c 0,4.25304 -3.44775,7.70079 -7.7008,7.70079 v 0 c -4.25303,0 -7.70078,-3.44775 -7.70078,-7.70079 z" />
  <path
     style="fill-rule:evenodd;stroke:#000000;stroke-width:1;stroke-linecap:butt;stroke-linejoin:round"
     inkscape:connector-curvature="0"
     id="path45"
     d="m 185.93702,95.49132 v 0 c 0,-4.25302 3.44775,-7.70079 7.70078,-7.70079 v 0 c 2.04238,0 4.00109,0.81134 5.44528,2.25551 1.44418,1.44418 2.25552,3.40291 2.25552,5.44528 v 0 c 0,4.25304 -3.44775,7.70079 -7.7008,7.70079 v 0 c -4.25303,0 -7.70078,-3.44775 -7.70078,-7.70079 z" />
  <path
     style="fill:#000000;fill-rule:evenodd"
     inkscape:connector-curvature="0"
     id="path47"
     d="m 233.57853,79.49132 v 0 c 0,-4.25302 3.44775,-7.70079 7.70078,-7.70079 v 0 c 2.04238,0 4.00109,0.81134 5.44528,2.25551 1.44418,1.44418 2.25552,3.40291 2.25552,5.44528 v 0 c 0,4.25304 -3.44775,7.70079 -7.7008,7.70079 v 0 c -4.25303,0 -7.70078,-3.44775 -7.70078,-7.70079 z" />
  <path
     style="fill-rule:evenodd;stroke:#000000;stroke-width:1;stroke-linecap:butt;stroke-linejoin:round"
     inkscape:connector-curvature="0"
     id="path49"
     d="m 233.57853,79.49132 v 0 c 0,-4.25302 3.44775,-7.70079 7.70078,-7.70079 v 0 c 2.04238,0 4.00109,0.81134 5.44528,2.25551 1.44418,1.44418 2.25552,3.40291 2.25552,5.44528 v 0 c 0,4.25304 -3.44775,7.70079 -7.7008,7.70079 v 0 c -4.25303,0 -7.70078,-3.44775 -7.70078,-7.70079 z" />
  <path
     style="fill:#ffffff;fill-rule:evenodd"
     inkscape:connector-curvature="0"
     id="path51"
     d="m 298.29549,71.49132 v 0 c 0,-4.25302 3.44782,-7.70079 7.70081,-7.70079 v 0 c 2.04235,0 4.00109,0.81134 5.44531,2.25551 1.44415,1.44418 2.25549,3.40291 2.25549,5.44528 v 0 c 0,4.25304 -3.44775,7.70079 -7.7008,7.70079 v 0 c -4.25299,0 -7.70081,-3.44775 -7.70081,-7.70079 z" />
  <path
     style="fill-rule:evenodd;stroke:#000000;stroke-width:1;stroke-linecap:butt;stroke-linejoin:round"
     inkscape:connector-curvature="0"
     id="path53"
     d="m 298.29549,71.49132 v 0 c 0,-4.25302 3.44782,-7.70079 7.70081,-7.70079 v 0 c 2.04235,0 4.00109,0.81134 5.44531,2.25551 1.44415,1.44418 2.25549,3.40291 2.25549,5.44528 v 0 c 0,4.25304 -3.44775,7.70079 -7.7008,7.70079 v 0 c -4.25299,0 -7.70081,-3.44775 -7.70081,-7.70079 z" />
  <path
     style="fill:#000000;fill-rule:evenodd"
     inkscape:connector-curvature="0"
     id="path55"
     d="m 271.62721,163.18137 h 85.66925 v -2.40945 l 4.81891,4.81889 -4.81891,4.81891 v -2.40946 h -85.66925 z" />
  <path
     style="fill-rule:evenodd;stroke:#000000;stroke-width:1;stroke-linecap:butt;stroke-linejoin:round"
     inkscape:connector-curvature="0"
     id="path57"
     d="m 271.62721,163.18137 h 85.66925 v -2.40945 l 4.81891,4.81889 -4.81891,4.81891 v -2.40946 h -85.66925 z" />
  <path
     style="fill:#000000;fill-opacity:0;fill-rule:evenodd"
     inkscape:connector-curvature="0"
     id="path59"
     d="m 10,118.94817 h 60.1575 v 25.66928 H 10 Z" />
  <path
     style="fill:#000000;fill-rule:nonzero"
     inkscape:connector-curvature="0"
     id="path61"
     d="m 19.5469,136.04503 q 0,-1.6875 0.3438,-2.71875 0.3593,-1.03125 1.0468,-1.59375 0.6875,-0.5625 1.7188,-0.5625 0.7812,0 1.3594,0.3125 0.5781,0.29687 0.9531,0.89062 0.375,0.57813 0.5937,1.42188 0.2188,0.82812 0.2188,2.25 0,1.67187 -0.3594,2.70312 -0.3437,1.03125 -1.0312,1.59375 -0.6719,0.5625 -1.7344,0.5625 -1.375,0 -2.1563,-0.98437 -0.9531,-1.1875 -0.9531,-3.875 z m 1.2031,0 q 0,2.34375 0.5469,3.125 0.5625,0.78125 1.3594,0.78125 0.8125,0 1.3594,-0.78125 0.5625,-0.78125 0.5625,-3.125 0,-2.35938 -0.5625,-3.125 -0.5469,-0.78125 -1.3594,-0.78125 -0.8125,0 -1.2969,0.6875 -0.6094,0.875 -0.6094,3.21875 z" />
  <path
     style="fill:#000000;fill-opacity:0;fill-rule:evenodd"
     inkscape:connector-curvature="0"
     id="path63"
     d="m 122.00004,118.94817 h 60.15747 v 25.66928 h -60.15747 z" />
  <path
     style="fill:#000000;fill-rule:nonzero"
     inkscape:connector-curvature="0"
     id="path65"
     d="m 131.54692,138.24816 1.23437,-0.10938 q 0.14063,0.90625 0.64063,1.35938 0.5,0.45312 1.20312,0.45312 0.84375,0 1.42188,-0.64062 0.59375,-0.64063 0.59375,-1.6875 0,-1 -0.5625,-1.57813 -0.5625,-0.59375 -1.48438,-0.59375 -0.5625,0 -1.01562,0.26563 -0.45313,0.25 -0.71875,0.67187 l -1.09375,-0.15625 0.92187,-4.89062 h 4.75 v 1.10937 h -3.8125 l -0.51562,2.5625 q 0.85937,-0.59375 1.79687,-0.59375 1.25,0 2.10938,0.875 0.85937,0.85938 0.85937,2.21875 0,1.29688 -0.75,2.23438 -0.92187,1.15625 -2.5,1.15625 -1.3125,0 -2.14062,-0.71875 -0.8125,-0.73438 -0.9375,-1.9375 z" />
  <path
     style="fill:#000000;fill-opacity:0;fill-rule:evenodd"
     inkscape:connector-curvature="0"
     id="path67"
     d="m 236.90571,118.94817 h 60.15747 v 25.66928 h -60.15747 z" />
  <path
     style="fill:#000000;fill-rule:nonzero"
     inkscape:connector-curvature="0"
     id="path69"
     d="m 250.87446,140.74816 h -1.17188 v -7.46875 q -0.42187,0.40625 -1.10937,0.8125 -0.6875,0.40625 -1.23438,0.60937 v -1.14062 q 0.98438,-0.45313 1.71875,-1.10938 0.73438,-0.67187 1.03125,-1.28125 h 0.76563 z m 2.9906,-4.70313 q 0,-1.6875 0.34375,-2.71875 0.35938,-1.03125 1.04688,-1.59375 0.6875,-0.5625 1.71875,-0.5625 0.78125,0 1.35937,0.3125 0.57813,0.29688 0.95313,0.89063 0.375,0.57812 0.59375,1.42187 0.21875,0.82813 0.21875,2.25 0,1.67188 -0.35938,2.70313 -0.34375,1.03125 -1.03125,1.59375 -0.67187,0.5625 -1.73437,0.5625 -1.375,0 -2.15625,-0.98438 -0.95313,-1.1875 -0.95313,-3.875 z m 1.20313,0 q 0,2.34375 0.54687,3.125 0.5625,0.78125 1.35938,0.78125 0.8125,0 1.35937,-0.78125 0.5625,-0.78125 0.5625,-3.125 0,-2.35937 -0.5625,-3.125 -0.54687,-0.78125 -1.35937,-0.78125 -0.8125,0 -1.29688,0.6875 -0.60937,0.875 -0.60937,3.21875 z" />
  <path
     style="fill:#000000;fill-rule:nonzero"
     inkscape:connector-curvature="0"
     id="path73"
     d="m 367.96882,140.74816 h -1.17188 v -7.46875 q -0.42187,0.40625 -1.10937,0.8125 -0.6875,0.40625 -1.23438,0.60937 v -1.14062 q 0.98438,-0.45313 1.71875,-1.10938 0.73438,-0.67187 1.03125,-1.28125 h 0.76563 z m 2.9906,-2.5 1.23438,-0.10938 q 0.14062,0.90625 0.64062,1.35938 0.5,0.45312 1.20313,0.45312 0.84375,0 1.42187,-0.64062 0.59375,-0.64063 0.59375,-1.6875 0,-1 -0.5625,-1.57813 -0.5625,-0.59375 -1.48437,-0.59375 -0.5625,0 -1.01563,0.26563 -0.45312,0.25 -0.71875,0.67187 l -1.09375,-0.15625 0.92188,-4.89062 h 4.75 v 1.10937 h -3.8125 l -0.51563,2.5625 q 0.85938,-0.59375 1.79688,-0.59375 1.25,0 2.10937,0.875 0.85938,0.85938 0.85938,2.21875 0,1.29688 -0.75,2.23438 -0.92188,1.15625 -2.5,1.15625 -1.3125,0 -2.14063,-0.71875 -0.8125,-0.73438 -0.9375,-1.9375 z" />
  <path
     style="fill:#ffffff;fill-rule:evenodd"
     inkscape:connector-curvature="0"
     id="path75"
     d="m 23.4459,201.91912 h 108.67718 v 40.59845 H 23.4459 Z" />
  <path
     style="fill-rule:evenodd;stroke:#000000;stroke-width:1;stroke-linecap:butt;stroke-linejoin:round"
     inkscape:connector-curvature="0"
     id="path77"
     d="m 23.4459,201.91912 h 108.67718 v 40.59845 H 23.4459 Z" />
  <path
     style="fill:#000000;fill-rule:evenodd"
     inkscape:connector-curvature="0"
     id="path79"
     d="m 36.1435,226.52905 v 0 c 0,-4.25302 3.2691,-7.70078 7.3019,-7.70078 v 0 c 1.9365,0 3.7938,0.81131 5.1632,2.2555 1.3693,1.44418 2.1386,3.40292 2.1386,5.44528 v 0 c 0,4.25302 -3.2691,7.70081 -7.3018,7.70081 v 0 c -4.0328,0 -7.3019,-3.44779 -7.3019,-7.70081 z" />
  <path
     style="fill-rule:evenodd;stroke:#000000;stroke-width:1;stroke-linecap:butt;stroke-linejoin:round"
     inkscape:connector-curvature="0"
     id="path81"
     d="m 36.1435,226.52905 v 0 c 0,-4.25302 3.2691,-7.70078 7.3019,-7.70078 v 0 c 1.9365,0 3.7938,0.81131 5.1632,2.2555 1.3693,1.44418 2.1386,3.40292 2.1386,5.44528 v 0 c 0,4.25302 -3.2691,7.70081 -7.3018,7.70081 v 0 c -4.0328,0 -7.3019,-3.44779 -7.3019,-7.70081 z" />
  <path
     style="fill:#ffffff;fill-rule:evenodd"
     inkscape:connector-curvature="0"
     id="path83"
     d="m 81.6571,218.52905 v 0 c 0,-4.25302 3.2691,-7.70078 7.3018,-7.70078 v 0 c 1.9366,0 3.7939,0.81131 5.1633,2.2555 1.3693,1.44418 2.1386,3.40292 2.1386,5.44528 v 0 c 0,4.25302 -3.2691,7.70081 -7.3019,7.70081 v 0 c -4.0327,0 -7.3018,-3.44779 -7.3018,-7.70081 z" />
  <path
     style="fill-rule:evenodd;stroke:#000000;stroke-width:1;stroke-linecap:butt;stroke-linejoin:round"
     inkscape:connector-curvature="0"
     id="path85"
     d="m 81.6571,218.52905 v 0 c 0,-4.25302 3.2691,-7.70078 7.3018,-7.70078 v 0 c 1.9366,0 3.7939,0.81131 5.1633,2.2555 1.3693,1.44418 2.1386,3.40292 2.1386,5.44528 v 0 c 0,4.25302 -3.2691,7.70081 -7.3019,7.70081 v 0 c -4.0327,0 -7.3018,-3.44779 -7.3018,-7.70081 z" />
  <path
     style="fill:#ffffff;fill-rule:evenodd"
     inkscape:connector-curvature="0"
     id="path87"
     d="m 138.63264,201.91912 h 114.61417 v 40.59845 H 138.63264 Z" />
  <path
     style="fill-rule:evenodd;stroke:#000000;stroke-width:1;stroke-linecap:butt;stroke-linejoin:round"
     inkscape:connector-curvature="0"
     id="path89"
     d="m 138.63264,201.91912 h 114.61417 v 40.59845 H 138.63264 Z" />
  <path
     style="fill:#000000;fill-rule:evenodd"
     inkscape:connector-curvature="0"
     id="path91"
     d="m 146.29551,230.21662 v 0 c 0,-4.25302 3.44775,-7.70078 7.70077,-7.70078 v 0 c 2.04239,0 4.0011,0.81135 5.44529,2.2555 1.44418,1.44418 2.25552,3.40292 2.25552,5.44528 v 0 c 0,4.25302 -3.44775,7.70081 -7.7008,7.70081 v 0 c -4.25303,0 -7.70078,-3.44779 -7.70078,-7.70081 z" />
  <path
     style="fill-rule:evenodd;stroke:#000000;stroke-width:1;stroke-linecap:butt;stroke-linejoin:round"
     inkscape:connector-curvature="0"
     id="path93"
     d="m 146.29551,230.21662 v 0 c 0,-4.25302 3.44775,-7.70078 7.70077,-7.70078 v 0 c 2.04239,0 4.0011,0.81135 5.44529,2.2555 1.44418,1.44418 2.25552,3.40292 2.25552,5.44528 v 0 c 0,4.25302 -3.44775,7.70081 -7.7008,7.70081 v 0 c -4.25303,0 -7.70078,-3.44779 -7.70078,-7.70081 z" />
  <path
     style="fill:#ffffff;fill-rule:evenodd"
     inkscape:connector-curvature="0"
     id="path95"
     d="m 185.93702,230.21662 v 0 c 0,-4.25302 3.44775,-7.70078 7.70078,-7.70078 v 0 c 2.04238,0 4.00109,0.81135 5.44528,2.2555 1.44418,1.44418 2.25552,3.40292 2.25552,5.44528 v 0 c 0,4.25302 -3.44775,7.70081 -7.7008,7.70081 v 0 c -4.25303,0 -7.70078,-3.44779 -7.70078,-7.70081 z" />
  <path
     style="fill-rule:evenodd;stroke:#000000;stroke-width:1;stroke-linecap:butt;stroke-linejoin:round"
     inkscape:connector-curvature="0"
     id="path97"
     d="m 185.93702,230.21662 v 0 c 0,-4.25302 3.44775,-7.70078 7.70078,-7.70078 v 0 c 2.04238,0 4.00109,0.81135 5.44528,2.2555 1.44418,1.44418 2.25552,3.40292 2.25552,5.44528 v 0 c 0,4.25302 -3.44775,7.70081 -7.7008,7.70081 v 0 c -4.25303,0 -7.70078,-3.44779 -7.70078,-7.70081 z" />
  <path
     style="fill:#000000;fill-rule:evenodd"
     inkscape:connector-curvature="0"
     id="path99"
     d="m 233.57853,214.21662 v 0 c 0,-4.25302 3.44775,-7.70078 7.70078,-7.70078 v 0 c 2.04238,0 4.00109,0.81135 5.44528,2.2555 1.44418,1.44418 2.25552,3.40292 2.25552,5.44528 v 0 c 0,4.25302 -3.44775,7.70081 -7.7008,7.70081 v 0 c -4.25303,0 -7.70078,-3.44779 -7.70078,-7.70081 z" />
  <path
     style="fill-rule:evenodd;stroke:#000000;stroke-width:1;stroke-linecap:butt;stroke-linejoin:round"
     inkscape:connector-curvature="0"
     id="path101"
     d="m 233.57853,214.21662 v 0 c 0,-4.25302 3.44775,-7.70078 7.70078,-7.70078 v 0 c 2.04238,0 4.00109,0.81135 5.44528,2.2555 1.44418,1.44418 2.25552,3.40292 2.25552,5.44528 v 0 c 0,4.25302 -3.44775,7.70081 -7.7008,7.70081 v 0 c -4.25303,0 -7.70078,-3.44779 -7.70078,-7.70081 z" />
  <path
     style="fill:#ffffff;fill-rule:evenodd"
     inkscape:connector-curvature="0"
     id="path103"
     d="m 258.63259,201.91912 h 108.66144 v 40.59845 H 258.63259 Z" />
  <path
     style="fill-rule:evenodd;stroke:#000000;stroke-width:1;stroke-linecap:butt;stroke-linejoin:round"
     inkscape:connector-curvature="0"
     id="path105"
     d="m 258.63259,201.91912 h 108.66144 v 40.59845 H 258.63259 Z" />
  <path
     style="fill:#ffffff;fill-rule:evenodd"
     inkscape:connector-curvature="0"
     id="path107"
     d="m 299.14454,213.36802 v 0 c 0,-4.25302 3.44775,-7.70078 7.70081,-7.70078 v 0 c 2.04235,0 4.00109,0.81131 5.44531,2.2555 1.44415,1.44418 2.25549,3.40289 2.25549,5.44528 v 0 c 0,4.25302 -3.44775,7.70078 -7.7008,7.70078 v 0 c -4.25306,0 -7.70081,-3.44776 -7.70081,-7.70078 z" />
  <path
     style="fill-rule:evenodd;stroke:#000000;stroke-width:1;stroke-linecap:butt;stroke-linejoin:round"
     inkscape:connector-curvature="0"
     id="path109"
     d="m 299.14454,213.36802 v 0 c 0,-4.25302 3.44775,-7.70078 7.70081,-7.70078 v 0 c 2.04235,0 4.00109,0.81131 5.44531,2.2555 1.44415,1.44418 2.25549,3.40289 2.25549,5.44528 v 0 c 0,4.25302 -3.44775,7.70078 -7.7008,7.70078 v 0 c -4.25306,0 -7.70081,-3.44776 -7.70081,-7.70078 z" />
  <path
     style="fill:#000000;fill-opacity:0;fill-rule:evenodd"
     inkscape:connector-curvature="0"
     id="path111"
     d="m 216.84886,144.58814 h 96.78738 v 40.59842 h -96.78738 z" />
  <path
     style="fill:#000000;fill-rule:nonzero"
     inkscape:connector-curvature="0"
     id="path113"
     d="m 230.00511,168.94814 v -10.10937 h -3.78125 v -1.34375 h 9.07812 v 1.34375 h -3.78125 v 10.10937 z m 6.08594,-9.84375 v -1.60937 h 1.40625 v 1.60937 z m 0,9.84375 v -8.29687 h 1.40625 v 8.29687 z m 3.55468,0 v -8.29687 h 1.25 v 1.15625 q 0.39063,-0.60938 1.03125,-0.96875 0.65625,-0.375 1.48438,-0.375 0.92187,0 1.51562,0.39062 0.59375,0.375 0.82813,1.0625 0.98437,-1.45312 2.5625,-1.45312 1.23437,0 1.89062,0.6875 0.67188,0.67187 0.67188,2.09375 v 5.70312 h -1.39063 v -5.23437 q 0,-0.84375 -0.14062,-1.20313 -0.14063,-0.375 -0.5,-0.59375 -0.35938,-0.23437 -0.84375,-0.23437 -0.875,0 -1.45313,0.57812 -0.57812,0.57813 -0.57812,1.85938 v 4.82812 h -1.40625 v -5.39062 q 0,-0.9375 -0.34375,-1.40625 -0.34375,-0.46875 -1.125,-0.46875 -0.59375,0 -1.09375,0.3125 -0.5,0.3125 -0.73438,0.92187 -0.21875,0.59375 -0.21875,1.71875 v 4.3125 z m 19,-2.67187 1.45313,0.17187 q -0.34375,1.28125 -1.28125,1.98438 -0.92188,0.70312 -2.35938,0.70312 -1.82812,0 -2.89062,-1.125 -1.0625,-1.125 -1.0625,-3.14062 0,-2.09375 1.07812,-3.25 1.07813,-1.15625 2.79688,-1.15625 1.65625,0 2.70312,1.14062 1.0625,1.125 1.0625,3.17188 0,0.125 0,0.375 h -6.1875 q 0.0781,1.375 0.76563,2.10937 0.70312,0.71875 1.73437,0.71875 0.78125,0 1.32813,-0.40625 0.54687,-0.40625 0.85937,-1.29687 z m -4.60937,-2.28125 h 4.625 q -0.0937,-1.04688 -0.53125,-1.5625 -0.67188,-0.8125 -1.73438,-0.8125 -0.96875,0 -1.64062,0.65625 -0.65625,0.64062 -0.71875,1.71875 z" />
  <path
     style="fill:#000000;fill-rule:nonzero"
     inkscape:connector-curvature="0"
     id="path117"
     d="M 40.8958,31.95312 V 14.73437 h 1.9218 v 1.625 q 0.6875,-0.95312 1.5313,-1.42187 0.8594,-0.48438 2.0781,-0.48438 1.5938,0 2.8125,0.82813 1.2188,0.8125 1.8438,2.3125 0.625,1.5 0.625,3.28125 0,1.90625 -0.6875,3.4375 -0.6875,1.53125 -2,2.34375 -1.2969,0.8125 -2.7344,0.8125 -1.0625,0 -1.9063,-0.4375 -0.8281,-0.45313 -1.375,-1.14063 v 6.0625 z m 1.9218,-10.92187 q 0,2.40625 0.9688,3.5625 0.9687,1.14062 2.3594,1.14062 1.4062,0 2.4062,-1.1875 1,-1.1875 1,-3.6875 0,-2.375 -0.9844,-3.5625 -0.9687,-1.1875 -2.3281,-1.1875 -1.3594,0 -2.3906,1.26563 -1.0313,1.25 -1.0313,3.65625 z m 19.5039,6.15625 v -1.57813 q -1.1875,1.85938 -3.4843,1.85938 -1.4844,0 -2.7344,-0.8125 -1.25,-0.82813 -1.9375,-2.29688 -0.6719,-1.46875 -0.6719,-3.39062 0,-1.85938 0.6094,-3.375 0.625,-1.51563 1.8594,-2.32813 1.25,-0.8125 2.7812,-0.8125 1.125,0 2,0.48438 0.8906,0.46875 1.4375,1.23437 V 10 h 2.0938 v 17.1875 z m -6.6718,-6.21875 q 0,2.39062 1,3.57812 1.0156,1.1875 2.3906,1.1875 1.3906,0 2.3437,-1.125 0.9688,-1.14062 0.9688,-3.45312 0,-2.5625 -0.9844,-3.75 -0.9844,-1.20313 -2.4219,-1.20313 -1.4062,0 -2.3593,1.15625 -0.9375,1.14063 -0.9375,3.60938 z m 12.5508,6.21875 v -2.40625 h 2.3906 v 2.40625 z m 10.6992,0 V 12.03125 H 73.2434 V 10 h 13.625 v 2.03125 H 81.1809 V 27.1875 Z m 9.1445,-14.75 V 10 h 2.1094 v 2.4375 z m 0,14.75 V 14.73437 h 2.1094 V 27.1875 Z m 5.3164,0 V 14.73437 h 1.8906 v 1.75 q 0.5938,-0.90625 1.5625,-1.46875 0.9688,-0.5625 2.2188,-0.5625 1.375,0 2.25,0.57813 0.8906,0.57812 1.2656,1.60937 1.4688,-2.1875 3.8438,-2.1875 1.8437,0 2.8437,1.03125 1,1.03125 1,3.15625 v 8.54688 h -2.10937 v -7.84375 q 0,-1.26563 -0.20313,-1.8125 -0.20312,-0.5625 -0.75,-0.90625 -0.5312,-0.34375 -1.25,-0.34375 -1.3125,0 -2.1875,0.875 -0.8594,0.875 -0.8594,2.79687 v 7.23438 h -2.1093 v -8.09375 q 0,-1.40625 -0.5157,-2.10938 -0.5156,-0.70312 -1.6875,-0.70312 -0.8906,0 -1.6562,0.46875 -0.75,0.46875 -1.0938,1.375 -0.3437,0.90625 -0.3437,2.60937 v 6.45313 z m 28.52344,-4.01563 2.17188,0.28125 q -0.51563,1.90625 -1.90625,2.96875 -1.39063,1.04688 -3.5625,1.04688 -2.73438,0 -4.34375,-1.67188 -1.59375,-1.6875 -1.59375,-4.73437 0,-3.14063 1.60937,-4.875 1.625,-1.73438 4.20313,-1.73438 2.5,0 4.07812,1.70313 1.59375,1.70312 1.59375,4.78125 0,0.1875 -0.0156,0.5625 h -9.28125 q 0.10937,2.04687 1.15625,3.14062 1.04687,1.09375 2.60937,1.09375 1.15625,0 1.96875,-0.60937 0.82813,-0.60938 1.3125,-1.95313 z m -6.9375,-3.40625 h 6.95313 q -0.14063,-1.5625 -0.79688,-2.35937 -1,-1.21875 -2.60937,-1.21875 -1.45313,0 -2.45313,0.98437 -0.98437,0.96875 -1.09375,2.59375 z m 10.91016,3.70313 2.09375,-0.32813 q 0.17187,1.25 0.96875,1.92188 0.8125,0.67187 2.25,0.67187 1.45312,0 2.15625,-0.59375 0.70312,-0.59375 0.70312,-1.39062 0,-0.71875 -0.625,-1.125 -0.42187,-0.28125 -2.15625,-0.71875 -2.3125,-0.57813 -3.21875,-1 -0.89062,-0.4375 -1.35937,-1.1875 -0.45313,-0.76563 -0.45313,-1.67188 0,-0.82812 0.375,-1.53125 0.39063,-0.71875 1.04688,-1.1875 0.48437,-0.35937 1.32812,-0.60937 0.85938,-0.26563 1.82813,-0.26563 1.46875,0 2.57812,0.42188 1.10938,0.42187 1.625,1.15625 0.53125,0.71875 0.73438,1.92187 l -2.0625,0.28125 q -0.14063,-0.96875 -0.8125,-1.5 -0.67188,-0.54687 -1.90625,-0.54687 -1.45313,0 -2.07813,0.48437 -0.625,0.48438 -0.625,1.125 0,0.40625 0.26563,0.73438 0.25,0.34375 0.8125,0.5625 0.3125,0.125 1.85937,0.54687 2.23438,0.59375 3.10938,0.98438 0.89062,0.375 1.39062,1.10937 0.51563,0.71875 0.51563,1.79688 0,1.04687 -0.625,1.98437 -0.60938,0.9375 -1.76563,1.45313 -1.15625,0.5 -2.625,0.5 -2.42187,0 -3.70312,-1 -1.26563,-1.01563 -1.625,-3 z m 21.375,-0.29688 2.17187,0.28125 q -0.51562,1.90625 -1.90625,2.96875 -1.39062,1.04688 -3.5625,1.04688 -2.73437,0 -4.34375,-1.67188 -1.59375,-1.6875 -1.59375,-4.73437 0,-3.14063 1.60938,-4.875 1.625,-1.73438 4.20312,-1.73438 2.5,0 4.07813,1.70313 1.59375,1.70312 1.59375,4.78125 0,0.1875 -0.0156,0.5625 h -9.28125 q 0.10938,2.04687 1.15625,3.14062 1.04688,1.09375 2.60938,1.09375 1.15625,0 1.96875,-0.60937 0.82812,-0.60938 1.3125,-1.95313 z m -6.9375,-3.40625 h 6.95312 q -0.14062,-1.5625 -0.79687,-2.35937 -1,-1.21875 -2.60938,-1.21875 -1.45312,0 -2.45312,0.98437 -0.98438,0.96875 -1.09375,2.59375 z m 11.73828,7.42188 V 14.73437 h 1.89062 V 16.625 q 0.73438,-1.32813 1.34375,-1.75 0.625,-0.42188 1.35938,-0.42188 1.0625,0 2.17187,0.6875 l -0.73437,1.95313 q -0.76563,-0.45313 -1.54688,-0.45313 -0.6875,0 -1.25,0.42188 -0.54687,0.40625 -0.78125,1.14062 -0.34375,1.125 -0.34375,2.46875 v 6.51563 z m 8.02344,-14.75 V 10 h 2.10937 v 2.4375 z m 0,14.75 V 14.73437 h 2.10937 V 27.1875 Z m 13.84765,-4.01563 2.17188,0.28125 q -0.51563,1.90625 -1.90625,2.96875 -1.39063,1.04688 -3.5625,1.04688 -2.73438,0 -4.34375,-1.67188 -1.59375,-1.6875 -1.59375,-4.73437 0,-3.14063 1.60937,-4.875 1.625,-1.73438 4.20313,-1.73438 2.5,0 4.07812,1.70313 1.59375,1.70312 1.59375,4.78125 0,0.1875 -0.0156,0.5625 h -9.28125 q 0.10937,2.04687 1.15625,3.14062 1.04687,1.09375 2.60937,1.09375 1.15625,0 1.96875,-0.60937 0.82813,-0.60938 1.3125,-1.95313 z m -6.9375,-3.40625 h 6.95313 q -0.14063,-1.5625 -0.79688,-2.35937 -1,-1.21875 -2.60937,-1.21875 -1.45313,0 -2.45313,0.98437 -0.98437,0.96875 -1.09375,2.59375 z m 10.91016,3.70313 2.09375,-0.32813 q 0.17187,1.25 0.96875,1.92188 0.8125,0.67187 2.25,0.67187 1.45312,0 2.15625,-0.59375 0.70312,-0.59375 0.70312,-1.39062 0,-0.71875 -0.625,-1.125 -0.42187,-0.28125 -2.15625,-0.71875 -2.3125,-0.57813 -3.21875,-1 -0.89062,-0.4375 -1.35937,-1.1875 -0.45313,-0.76563 -0.45313,-1.67188 0,-0.82812 0.375,-1.53125 0.39063,-0.71875 1.04688,-1.1875 0.48437,-0.35937 1.32812,-0.60937 0.85938,-0.26563 1.82813,-0.26563 1.46875,0 2.57812,0.42188 1.10938,0.42187 1.625,1.15625 0.53125,0.71875 0.73438,1.92187 l -2.0625,0.28125 q -0.14063,-0.96875 -0.8125,-1.5 -0.67188,-0.54687 -1.90625,-0.54687 -1.45313,0 -2.07813,0.48437 -0.625,0.48438 -0.625,1.125 0,0.40625 0.26563,0.73438 0.25,0.34375 0.8125,0.5625 0.3125,0.125 1.85937,0.54687 2.23438,0.59375 3.10938,0.98438 0.89062,0.375 1.39062,1.10937 0.51563,0.71875 0.51563,1.79688 0,1.04687 -0.625,1.98437 -0.60938,0.9375 -1.76563,1.45313 -1.15625,0.5 -2.625,0.5 -2.42187,0 -3.70312,-1 -1.26563,-1.01563 -1.625,-3 z m 13.45312,3.71875 v -2.40625 h 2.39063 v 2.40625 z m 6.04297,0 V 14.73437 h 1.89063 V 16.625 q 0.73437,-1.32813 1.34375,-1.75 0.625,-0.42188 1.35937,-0.42188 1.0625,0 2.17188,0.6875 l -0.73438,1.95313 q -0.76562,-0.45313 -1.54687,-0.45313 -0.6875,0 -1.25,0.42188 -0.54688,0.40625 -0.78125,1.14062 -0.34375,1.125 -0.34375,2.46875 v 6.51563 z m 16.53906,-4.01563 2.17188,0.28125 q -0.51563,1.90625 -1.90625,2.96875 -1.39063,1.04688 -3.5625,1.04688 -2.73438,0 -4.34375,-1.67188 -1.59375,-1.6875 -1.59375,-4.73437 0,-3.14063 1.60937,-4.875 1.625,-1.73438 4.20313,-1.73438 2.5,0 4.07812,1.70313 1.59375,1.70312 1.59375,4.78125 0,0.1875 -0.0156,0.5625 h -9.28125 q 0.10937,2.04687 1.15625,3.14062 1.04687,1.09375 2.60937,1.09375 1.15625,0 1.96875,-0.60937 0.82813,-0.60938 1.3125,-1.95313 z m -6.9375,-3.40625 h 6.95313 q -0.14063,-1.5625 -0.79688,-2.35937 -1,-1.21875 -2.60937,-1.21875 -1.45313,0 -2.45313,0.98437 -0.98437,0.96875 -1.09375,2.59375 z m 10.91016,3.70313 2.09375,-0.32813 q 0.17187,1.25 0.96875,1.92188 0.8125,0.67187 2.25,0.67187 1.45312,0 2.15625,-0.59375 0.70312,-0.59375 0.70312,-1.39062 0,-0.71875 -0.625,-1.125 -0.42187,-0.28125 -2.15625,-0.71875 -2.3125,-0.57813 -3.21875,-1 -0.89062,-0.4375 -1.35937,-1.1875 -0.45313,-0.76563 -0.45313,-1.67188 0,-0.82812 0.375,-1.53125 0.39063,-0.71875 1.04688,-1.1875 0.48437,-0.35937 1.32812,-0.60937 0.85938,-0.26563 1.82813,-0.26563 1.46875,0 2.57812,0.42188 1.10938,0.42187 1.625,1.15625 0.53125,0.71875 0.73438,1.92187 l -2.0625,0.28125 q -0.14063,-0.96875 -0.8125,-1.5 -0.67188,-0.54687 -1.90625,-0.54687 -1.45313,0 -2.07813,0.48437 -0.625,0.48438 -0.625,1.125 0,0.40625 0.26563,0.73438 0.25,0.34375 0.8125,0.5625 0.3125,0.125 1.85937,0.54687 2.23438,0.59375 3.10938,0.98438 0.89062,0.375 1.39062,1.10937 0.51563,0.71875 0.51563,1.79688 0,1.04687 -0.625,1.98437 -0.60938,0.9375 -1.76563,1.45313 -1.15625,0.5 -2.625,0.5 -2.42187,0 -3.70312,-1 -1.26563,-1.01563 -1.625,-3 z m 20.96875,2.1875 q -1.17188,0.98437 -2.26563,1.40625 -1.07812,0.40625 -2.3125,0.40625 -2.04687,0 -3.15625,-1 -1.09375,-1 -1.09375,-2.5625 0,-0.92188 0.40625,-1.67188 0.42188,-0.75 1.09375,-1.20312 0.67188,-0.46875 1.51563,-0.70313 0.625,-0.15625 1.875,-0.3125 2.5625,-0.3125 3.76562,-0.73437 0.0156,-0.42188 0.0156,-0.54688 0,-1.28125 -0.60938,-1.8125 -0.79687,-0.71875 -2.39062,-0.71875 -1.5,0 -2.20313,0.53125 -0.70312,0.51563 -1.04687,1.84375 l -2.0625,-0.28125 q 0.28125,-1.32812 0.92187,-2.14062 0.64063,-0.8125 1.85938,-1.25 1.21875,-0.45313 2.82812,-0.45313 1.59375,0 2.59375,0.375 1,0.375 1.46875,0.95313 0.46875,0.5625 0.65625,1.4375 0.0937,0.53125 0.0937,1.9375 v 2.8125 q 0,2.9375 0.14063,3.71875 0.14062,0.78125 0.53125,1.5 h -2.20313 q -0.32812,-0.65625 -0.42187,-1.53125 z m -0.17188,-4.71875 q -1.15625,0.46875 -3.45312,0.79687 -1.29688,0.1875 -1.84375,0.42188 -0.53125,0.23437 -0.82813,0.6875 -0.28125,0.45312 -0.28125,1 0,0.84375 0.625,1.40625 0.64063,0.5625 1.875,0.5625 1.21875,0 2.17188,-0.53125 0.95312,-0.53125 1.39062,-1.45313 0.34375,-0.71875 0.34375,-2.10937 z m 5.39454,6.25 V 14.73437 h 1.89062 v 1.75 q 0.59375,-0.90625 1.5625,-1.46875 0.96875,-0.5625 2.21875,-0.5625 1.375,0 2.25,0.57813 0.89063,0.57812 1.26563,1.60937 1.46875,-2.1875 3.84375,-2.1875 1.84375,0 2.84375,1.03125 1,1.03125 1,3.15625 v 8.54688 h -2.10938 v -7.84375 q 0,-1.26563 -0.20312,-1.8125 -0.20313,-0.5625 -0.75,-0.90625 -0.53125,-0.34375 -1.25,-0.34375 -1.3125,0 -2.1875,0.875 -0.85938,0.875 -0.85938,2.79687 v 7.23438 h -2.10937 v -8.09375 q 0,-1.40625 -0.51563,-2.10938 -0.51562,-0.70312 -1.6875,-0.70312 -0.89062,0 -1.65625,0.46875 -0.75,0.46875 -1.09375,1.375 -0.34375,0.90625 -0.34375,2.60937 v 6.45313 z m 19.99218,4.76562 V 14.73437 h 1.92188 v 1.625 q 0.6875,-0.95312 1.53125,-1.42187 0.85937,-0.48438 2.07812,-0.48438 1.59375,0 2.8125,0.82813 1.21875,0.8125 1.84375,2.3125 0.625,1.5 0.625,3.28125 0,1.90625 -0.6875,3.4375 -0.6875,1.53125 -2,2.34375 -1.29687,0.8125 -2.73437,0.8125 -1.0625,0 -1.90625,-0.4375 -0.82813,-0.45313 -1.375,-1.14063 v 6.0625 z m 1.92188,-10.92187 q 0,2.40625 0.96875,3.5625 0.96875,1.14062 2.35937,1.14062 1.40625,0 2.40625,-1.1875 1,-1.1875 1,-3.6875 0,-2.375 -0.98437,-3.5625 -0.96875,-1.1875 -2.32813,-1.1875 -1.35937,0 -2.39062,1.26563 -1.03125,1.25 -1.03125,3.65625 z m 11.3789,6.15625 V 10 h 2.10938 v 17.1875 z m 13.91016,-4.01563 2.17188,0.28125 q -0.51563,1.90625 -1.90625,2.96875 -1.39063,1.04688 -3.5625,1.04688 -2.73438,0 -4.34375,-1.67188 -1.59375,-1.6875 -1.59375,-4.73437 0,-3.14063 1.60937,-4.875 1.625,-1.73438 4.20313,-1.73438 2.5,0 4.07812,1.70313 1.59375,1.70312 1.59375,4.78125 0,0.1875 -0.0156,0.5625 h -9.28125 q 0.10937,2.04687 1.15625,3.14062 1.04687,1.09375 2.60937,1.09375 1.15625,0 1.96875,-0.60937 0.82813,-0.60938 1.3125,-1.95313 z m -6.9375,-3.40625 h 6.95313 q -0.14063,-1.5625 -0.79688,-2.35937 -1,-1.21875 -2.60937,-1.21875 -1.45313,0 -2.45313,0.98437 -0.98437,0.96875 -1.09375,2.59375 z" />
</svg>
