<svg xmlns="http://www.w3.org/2000/svg" width="1280" height="871" style="cursor: move;"><g transform="translate(-273.2983655923572,-23.25792499282352) scale(1.490710386798921)"><path class="link" marker-end="" d="M499.5,28.5, 609.5,191.5" style="stroke-width: 0.5; stroke-opacity: 1; stroke: rgb(80, 80, 80);"></path><path class="link" marker-end="" d="M499.5,28.5, 609.5,230.5" style="stroke-width: 0.5; stroke-opacity: 1; stroke: rgb(80, 80, 80);"></path><path class="link" marker-end="" d="M499.5,28.5, 609.5,269.5" style="stroke-width: 0.5; stroke-opacity: 1; stroke: rgb(80, 80, 80);"></path><path class="link" marker-end="" d="M499.5,28.5, 609.5,308.5" style="stroke-width: 0.5; stroke-opacity: 1; stroke: rgb(80, 80, 80);"></path><path class="link" marker-end="" d="M499.5,28.5, 609.5,347.5" style="stroke-width: 0.5; stroke-opacity: 1; stroke: rgb(80, 80, 80);"></path><path class="link" marker-end="" d="M499.5,28.5, 609.5,386.5" style="stroke-width: 0.5; stroke-opacity: 1; stroke: rgb(80, 80, 80);"></path><path class="link" marker-end="" d="M499.5,28.5, 609.5,425.5" style="stroke-width: 0.5; stroke-opacity: 1; stroke: rgb(80, 80, 80);"></path><path class="link" marker-end="" d="M499.5,68.5, 609.5,191.5" style="stroke-width: 0.5; stroke-opacity: 1; stroke: rgb(80, 80, 80);"></path><path class="link" marker-end="" d="M499.5,68.5, 609.5,230.5" style="stroke-width: 0.5; stroke-opacity: 1; stroke: rgb(80, 80, 80);"></path><path class="link" marker-end="" d="M499.5,68.5, 609.5,269.5" style="stroke-width: 0.5; stroke-opacity: 1; stroke: rgb(80, 80, 80);"></path><path class="link" marker-end="" d="M499.5,68.5, 609.5,308.5" style="stroke-width: 0.5; stroke-opacity: 1; stroke: rgb(80, 80, 80);"></path><path class="link" marker-end="" d="M499.5,68.5, 609.5,347.5" style="stroke-width: 0.5; stroke-opacity: 1; stroke: rgb(80, 80, 80);"></path><path class="link" marker-end="" d="M499.5,68.5, 609.5,386.5" style="stroke-width: 0.5; stroke-opacity: 1; stroke: rgb(80, 80, 80);"></path><path class="link" marker-end="" d="M499.5,68.5, 609.5,425.5" style="stroke-width: 0.5; stroke-opacity: 1; stroke: rgb(80, 80, 80);"></path><path class="link" marker-end="" d="M499.5,108.5, 609.5,191.5" style="stroke-width: 0.5; stroke-opacity: 1; stroke: rgb(80, 80, 80);"></path><path class="link" marker-end="" d="M499.5,108.5, 609.5,230.5" style="stroke-width: 0.5; stroke-opacity: 1; stroke: rgb(80, 80, 80);"></path><path class="link" marker-end="" d="M499.5,108.5, 609.5,269.5" style="stroke-width: 0.5; stroke-opacity: 1; stroke: rgb(80, 80, 80);"></path><path class="link" marker-end="" d="M499.5,108.5, 609.5,308.5" style="stroke-width: 0.5; stroke-opacity: 1; stroke: rgb(80, 80, 80);"></path><path class="link" marker-end="" d="M499.5,108.5, 609.5,347.5" style="stroke-width: 0.5; stroke-opacity: 1; stroke: rgb(80, 80, 80);"></path><path class="link" marker-end="" d="M499.5,108.5, 609.5,386.5" style="stroke-width: 0.5; stroke-opacity: 1; stroke: rgb(80, 80, 80);"></path><path class="link" marker-end="" d="M499.5,108.5, 609.5,425.5" style="stroke-width: 0.5; stroke-opacity: 1; stroke: rgb(80, 80, 80);"></path><path class="link" marker-end="" d="M499.5,148.5, 609.5,191.5" style="stroke-width: 0.5; stroke-opacity: 1; stroke: rgb(80, 80, 80);"></path><path class="link" marker-end="" d="M499.5,148.5, 609.5,230.5" style="stroke-width: 0.5; stroke-opacity: 1; stroke: rgb(80, 80, 80);"></path><path class="link" marker-end="" d="M499.5,148.5, 609.5,269.5" style="stroke-width: 0.5; stroke-opacity: 1; stroke: rgb(80, 80, 80);"></path><path class="link" marker-end="" d="M499.5,148.5, 609.5,308.5" style="stroke-width: 0.5; stroke-opacity: 1; stroke: rgb(80, 80, 80);"></path><path class="link" marker-end="" d="M499.5,148.5, 609.5,347.5" style="stroke-width: 0.5; stroke-opacity: 1; stroke: rgb(80, 80, 80);"></path><path class="link" marker-end="" d="M499.5,148.5, 609.5,386.5" style="stroke-width: 0.5; stroke-opacity: 1; stroke: rgb(80, 80, 80);"></path><path class="link" marker-end="" d="M499.5,148.5, 609.5,425.5" style="stroke-width: 0.5; stroke-opacity: 1; stroke: rgb(80, 80, 80);"></path><path class="link" marker-end="" d="M499.5,188.5, 609.5,191.5" style="stroke-width: 0.5; stroke-opacity: 1; stroke: rgb(80, 80, 80);"></path><path class="link" marker-end="" d="M499.5,188.5, 609.5,230.5" style="stroke-width: 0.5; stroke-opacity: 1; stroke: rgb(80, 80, 80);"></path><path class="link" marker-end="" d="M499.5,188.5, 609.5,269.5" style="stroke-width: 0.5; stroke-opacity: 1; stroke: rgb(80, 80, 80);"></path><path class="link" marker-end="" d="M499.5,188.5, 609.5,308.5" style="stroke-width: 0.5; stroke-opacity: 1; stroke: rgb(80, 80, 80);"></path><path class="link" marker-end="" d="M499.5,188.5, 609.5,347.5" style="stroke-width: 0.5; stroke-opacity: 1; stroke: rgb(80, 80, 80);"></path><path class="link" marker-end="" d="M499.5,188.5, 609.5,386.5" style="stroke-width: 0.5; stroke-opacity: 1; stroke: rgb(80, 80, 80);"></path><path class="link" marker-end="" d="M499.5,188.5, 609.5,425.5" style="stroke-width: 0.5; stroke-opacity: 1; stroke: rgb(80, 80, 80);"></path><path class="link" marker-end="" d="M499.5,228.5, 609.5,191.5" style="stroke-width: 0.5; stroke-opacity: 1; stroke: rgb(80, 80, 80);"></path><path class="link" marker-end="" d="M499.5,228.5, 609.5,230.5" style="stroke-width: 0.5; stroke-opacity: 1; stroke: rgb(80, 80, 80);"></path><path class="link" marker-end="" d="M499.5,228.5, 609.5,269.5" style="stroke-width: 0.5; stroke-opacity: 1; stroke: rgb(80, 80, 80);"></path><path class="link" marker-end="" d="M499.5,228.5, 609.5,308.5" style="stroke-width: 0.5; stroke-opacity: 1; stroke: rgb(80, 80, 80);"></path><path class="link" marker-end="" d="M499.5,228.5, 609.5,347.5" style="stroke-width: 0.5; stroke-opacity: 1; stroke: rgb(80, 80, 80);"></path><path class="link" marker-end="" d="M499.5,228.5, 609.5,386.5" style="stroke-width: 0.5; stroke-opacity: 1; stroke: rgb(80, 80, 80);"></path><path class="link" marker-end="" d="M499.5,228.5, 609.5,425.5" style="stroke-width: 0.5; stroke-opacity: 1; stroke: rgb(80, 80, 80);"></path><path class="link" marker-end="" d="M499.5,268.5, 609.5,191.5" style="stroke-width: 0.5; stroke-opacity: 1; stroke: rgb(80, 80, 80);"></path><path class="link" marker-end="" d="M499.5,268.5, 609.5,230.5" style="stroke-width: 0.5; stroke-opacity: 1; stroke: rgb(80, 80, 80);"></path><path class="link" marker-end="" d="M499.5,268.5, 609.5,269.5" style="stroke-width: 0.5; stroke-opacity: 1; stroke: rgb(80, 80, 80);"></path><path class="link" marker-end="" d="M499.5,268.5, 609.5,308.5" style="stroke-width: 0.5; stroke-opacity: 1; stroke: rgb(80, 80, 80);"></path><path class="link" marker-end="" d="M499.5,268.5, 609.5,347.5" style="stroke-width: 0.5; stroke-opacity: 1; stroke: rgb(80, 80, 80);"></path><path class="link" marker-end="" d="M499.5,268.5, 609.5,386.5" style="stroke-width: 0.5; stroke-opacity: 1; stroke: rgb(80, 80, 80);"></path><path class="link" marker-end="" d="M499.5,268.5, 609.5,425.5" style="stroke-width: 0.5; stroke-opacity: 1; stroke: rgb(80, 80, 80);"></path><path class="link" marker-end="" d="M499.5,308.5, 609.5,191.5" style="stroke-width: 0.5; stroke-opacity: 1; stroke: rgb(80, 80, 80);"></path><path class="link" marker-end="" d="M499.5,308.5, 609.5,230.5" style="stroke-width: 0.5; stroke-opacity: 1; stroke: rgb(80, 80, 80);"></path><path class="link" marker-end="" d="M499.5,308.5, 609.5,269.5" style="stroke-width: 0.5; stroke-opacity: 1; stroke: rgb(80, 80, 80);"></path><path class="link" marker-end="" d="M499.5,308.5, 609.5,308.5" style="stroke-width: 0.5; stroke-opacity: 1; stroke: rgb(80, 80, 80);"></path><path class="link" marker-end="" d="M499.5,308.5, 609.5,347.5" style="stroke-width: 0.5; stroke-opacity: 1; stroke: rgb(80, 80, 80);"></path><path class="link" marker-end="" d="M499.5,308.5, 609.5,386.5" style="stroke-width: 0.5; stroke-opacity: 1; stroke: rgb(80, 80, 80);"></path><path class="link" marker-end="" d="M499.5,308.5, 609.5,425.5" style="stroke-width: 0.5; stroke-opacity: 1; stroke: rgb(80, 80, 80);"></path><path class="link" marker-end="" d="M499.5,348.5, 609.5,191.5" style="stroke-width: 0.5; stroke-opacity: 1; stroke: rgb(80, 80, 80);"></path><path class="link" marker-end="" d="M499.5,348.5, 609.5,230.5" style="stroke-width: 0.5; stroke-opacity: 1; stroke: rgb(80, 80, 80);"></path><path class="link" marker-end="" d="M499.5,348.5, 609.5,269.5" style="stroke-width: 0.5; stroke-opacity: 1; stroke: rgb(80, 80, 80);"></path><path class="link" marker-end="" d="M499.5,348.5, 609.5,308.5" style="stroke-width: 0.5; stroke-opacity: 1; stroke: rgb(80, 80, 80);"></path><path class="link" marker-end="" d="M499.5,348.5, 609.5,347.5" style="stroke-width: 0.5; stroke-opacity: 1; stroke: rgb(80, 80, 80);"></path><path class="link" marker-end="" d="M499.5,348.5, 609.5,386.5" style="stroke-width: 0.5; stroke-opacity: 1; stroke: rgb(80, 80, 80);"></path><path class="link" marker-end="" d="M499.5,348.5, 609.5,425.5" style="stroke-width: 0.5; stroke-opacity: 1; stroke: rgb(80, 80, 80);"></path><path class="link" marker-end="" d="M499.5,388.5, 609.5,191.5" style="stroke-width: 0.5; stroke-opacity: 1; stroke: rgb(80, 80, 80);"></path><path class="link" marker-end="" d="M499.5,388.5, 609.5,230.5" style="stroke-width: 0.5; stroke-opacity: 1; stroke: rgb(80, 80, 80);"></path><path class="link" marker-end="" d="M499.5,388.5, 609.5,269.5" style="stroke-width: 0.5; stroke-opacity: 1; stroke: rgb(80, 80, 80);"></path><path class="link" marker-end="" d="M499.5,388.5, 609.5,308.5" style="stroke-width: 0.5; stroke-opacity: 1; stroke: rgb(80, 80, 80);"></path><path class="link" marker-end="" d="M499.5,388.5, 609.5,347.5" style="stroke-width: 0.5; stroke-opacity: 1; stroke: rgb(80, 80, 80);"></path><path class="link" marker-end="" d="M499.5,388.5, 609.5,386.5" style="stroke-width: 0.5; stroke-opacity: 1; stroke: rgb(80, 80, 80);"></path><path class="link" marker-end="" d="M499.5,388.5, 609.5,425.5" style="stroke-width: 0.5; stroke-opacity: 1; stroke: rgb(80, 80, 80);"></path><path class="link" marker-end="" d="M499.5,428.5, 609.5,191.5" style="stroke-width: 0.5; stroke-opacity: 1; stroke: rgb(80, 80, 80);"></path><path class="link" marker-end="" d="M499.5,428.5, 609.5,230.5" style="stroke-width: 0.5; stroke-opacity: 1; stroke: rgb(80, 80, 80);"></path><path class="link" marker-end="" d="M499.5,428.5, 609.5,269.5" style="stroke-width: 0.5; stroke-opacity: 1; stroke: rgb(80, 80, 80);"></path><path class="link" marker-end="" d="M499.5,428.5, 609.5,308.5" style="stroke-width: 0.5; stroke-opacity: 1; stroke: rgb(80, 80, 80);"></path><path class="link" marker-end="" d="M499.5,428.5, 609.5,347.5" style="stroke-width: 0.5; stroke-opacity: 1; stroke: rgb(80, 80, 80);"></path><path class="link" marker-end="" d="M499.5,428.5, 609.5,386.5" style="stroke-width: 0.5; stroke-opacity: 1; stroke: rgb(80, 80, 80);"></path><path class="link" marker-end="" d="M499.5,428.5, 609.5,425.5" style="stroke-width: 0.5; stroke-opacity: 1; stroke: rgb(80, 80, 80);"></path><path class="link" marker-end="" d="M499.5,468.5, 609.5,191.5" style="stroke-width: 0.5; stroke-opacity: 1; stroke: rgb(80, 80, 80);"></path><path class="link" marker-end="" d="M499.5,468.5, 609.5,230.5" style="stroke-width: 0.5; stroke-opacity: 1; stroke: rgb(80, 80, 80);"></path><path class="link" marker-end="" d="M499.5,468.5, 609.5,269.5" style="stroke-width: 0.5; stroke-opacity: 1; stroke: rgb(80, 80, 80);"></path><path class="link" marker-end="" d="M499.5,468.5, 609.5,308.5" style="stroke-width: 0.5; stroke-opacity: 1; stroke: rgb(80, 80, 80);"></path><path class="link" marker-end="" d="M499.5,468.5, 609.5,347.5" style="stroke-width: 0.5; stroke-opacity: 1; stroke: rgb(80, 80, 80);"></path><path class="link" marker-end="" d="M499.5,468.5, 609.5,386.5" style="stroke-width: 0.5; stroke-opacity: 1; stroke: rgb(80, 80, 80);"></path><path class="link" marker-end="" d="M499.5,468.5, 609.5,425.5" style="stroke-width: 0.5; stroke-opacity: 1; stroke: rgb(80, 80, 80);"></path><path class="link" marker-end="" d="M499.5,508.5, 609.5,191.5" style="stroke-width: 0.5; stroke-opacity: 1; stroke: rgb(80, 80, 80);"></path><path class="link" marker-end="" d="M499.5,508.5, 609.5,230.5" style="stroke-width: 0.5; stroke-opacity: 1; stroke: rgb(80, 80, 80);"></path><path class="link" marker-end="" d="M499.5,508.5, 609.5,269.5" style="stroke-width: 0.5; stroke-opacity: 1; stroke: rgb(80, 80, 80);"></path><path class="link" marker-end="" d="M499.5,508.5, 609.5,308.5" style="stroke-width: 0.5; stroke-opacity: 1; stroke: rgb(80, 80, 80);"></path><path class="link" marker-end="" d="M499.5,508.5, 609.5,347.5" style="stroke-width: 0.5; stroke-opacity: 1; stroke: rgb(80, 80, 80);"></path><path class="link" marker-end="" d="M499.5,508.5, 609.5,386.5" style="stroke-width: 0.5; stroke-opacity: 1; stroke: rgb(80, 80, 80);"></path><path class="link" marker-end="" d="M499.5,508.5, 609.5,425.5" style="stroke-width: 0.5; stroke-opacity: 1; stroke: rgb(80, 80, 80);"></path><path class="link" marker-end="" d="M609.5,191.5, 719.5,288.5" style="stroke-width: 0.5; stroke-opacity: 1; stroke: rgb(80, 80, 80);"></path><path class="link" marker-end="" d="M609.5,191.5, 719.5,328.5" style="stroke-width: 0.5; stroke-opacity: 1; stroke: rgb(80, 80, 80);"></path><path class="link" marker-end="" d="M609.5,230.5, 719.5,288.5" style="stroke-width: 0.5; stroke-opacity: 1; stroke: rgb(80, 80, 80);"></path><path class="link" marker-end="" d="M609.5,230.5, 719.5,328.5" style="stroke-width: 0.5; stroke-opacity: 1; stroke: rgb(80, 80, 80);"></path><path class="link" marker-end="" d="M609.5,269.5, 719.5,288.5" style="stroke-width: 0.5; stroke-opacity: 1; stroke: rgb(80, 80, 80);"></path><path class="link" marker-end="" d="M609.5,269.5, 719.5,328.5" style="stroke-width: 0.5; stroke-opacity: 1; stroke: rgb(80, 80, 80);"></path><path class="link" marker-end="" d="M609.5,308.5, 719.5,288.5" style="stroke-width: 0.5; stroke-opacity: 1; stroke: rgb(80, 80, 80);"></path><path class="link" marker-end="" d="M609.5,308.5, 719.5,328.5" style="stroke-width: 0.5; stroke-opacity: 1; stroke: rgb(80, 80, 80);"></path><path class="link" marker-end="" d="M609.5,347.5, 719.5,288.5" style="stroke-width: 0.5; stroke-opacity: 1; stroke: rgb(80, 80, 80);"></path><path class="link" marker-end="" d="M609.5,347.5, 719.5,328.5" style="stroke-width: 0.5; stroke-opacity: 1; stroke: rgb(80, 80, 80);"></path><path class="link" marker-end="" d="M609.5,386.5, 719.5,288.5" style="stroke-width: 0.5; stroke-opacity: 1; stroke: rgb(80, 80, 80);"></path><path class="link" marker-end="" d="M609.5,386.5, 719.5,328.5" style="stroke-width: 0.5; stroke-opacity: 1; stroke: rgb(80, 80, 80);"></path><path class="link" marker-end="" d="M609.5,425.5, 719.5,288.5" style="stroke-width: 0.5; stroke-opacity: 1; stroke: rgb(80, 80, 80);"></path><path class="link" marker-end="" d="M609.5,425.5, 719.5,328.5" style="stroke-width: 0.5; stroke-opacity: 1; stroke: rgb(80, 80, 80);"></path><path class="link" marker-end="" d="M719.5,288.5, 829.5,188.5" style="stroke-width: 0.5; stroke-opacity: 1; stroke: rgb(80, 80, 80);"></path><path class="link" marker-end="" d="M719.5,328.5, 829.5,188.5" style="stroke-width: 0.5; stroke-opacity: 1; stroke: rgb(80, 80, 80);"></path><path class="link" marker-end="" d="M719.5,288.5, 829.5,228.5" style="stroke-width: 0.5; stroke-opacity: 1; stroke: rgb(80, 80, 80);"></path><path class="link" marker-end="" d="M719.5,328.5, 829.5,228.5" style="stroke-width: 0.5; stroke-opacity: 1; stroke: rgb(80, 80, 80);"></path><path class="link" marker-end="" d="M719.5,288.5, 829.5,268.5" style="stroke-width: 0.5; stroke-opacity: 1; stroke: rgb(80, 80, 80);"></path><path class="link" marker-end="" d="M719.5,328.5, 829.5,268.5" style="stroke-width: 0.5; stroke-opacity: 1; stroke: rgb(80, 80, 80);"></path><path class="link" marker-end="" d="M719.5,288.5, 829.5,308.5" style="stroke-width: 0.5; stroke-opacity: 1; stroke: rgb(80, 80, 80);"></path><path class="link" marker-end="" d="M719.5,328.5, 829.5,308.5" style="stroke-width: 0.5; stroke-opacity: 1; stroke: rgb(80, 80, 80);"></path><path class="link" marker-end="" d="M719.5,288.5, 829.5,348.5" style="stroke-width: 0.5; stroke-opacity: 1; stroke: rgb(80, 80, 80);"></path><path class="link" marker-end="" d="M719.5,328.5, 829.5,348.5" style="stroke-width: 0.5; stroke-opacity: 1; stroke: rgb(80, 80, 80);"></path><path class="link" marker-end="" d="M719.5,288.5, 829.5,388.5" style="stroke-width: 0.5; stroke-opacity: 1; stroke: rgb(80, 80, 80);"></path><path class="link" marker-end="" d="M719.5,328.5, 829.5,388.5" style="stroke-width: 0.5; stroke-opacity: 1; stroke: rgb(80, 80, 80);"></path><path class="link" marker-end="" d="M719.5,288.5, 829.5,428.5" style="stroke-width: 0.5; stroke-opacity: 1; stroke: rgb(80, 80, 80);"></path><path class="link" marker-end="" d="M719.5,328.5, 829.5,428.5" style="stroke-width: 0.5; stroke-opacity: 1; stroke: rgb(80, 80, 80);"></path><path class="link" marker-end="" d="M829.5,188.5, 939.5,28.5" style="stroke-width: 0.5; stroke-opacity: 1; stroke: rgb(80, 80, 80);"></path><path class="link" marker-end="" d="M829.5,228.5, 939.5,28.5" style="stroke-width: 0.5; stroke-opacity: 1; stroke: rgb(80, 80, 80);"></path><path class="link" marker-end="" d="M829.5,268.5, 939.5,28.5" style="stroke-width: 0.5; stroke-opacity: 1; stroke: rgb(80, 80, 80);"></path><path class="link" marker-end="" d="M829.5,308.5, 939.5,28.5" style="stroke-width: 0.5; stroke-opacity: 1; stroke: rgb(80, 80, 80);"></path><path class="link" marker-end="" d="M829.5,348.5, 939.5,28.5" style="stroke-width: 0.5; stroke-opacity: 1; stroke: rgb(80, 80, 80);"></path><path class="link" marker-end="" d="M829.5,388.5, 939.5,28.5" style="stroke-width: 0.5; stroke-opacity: 1; stroke: rgb(80, 80, 80);"></path><path class="link" marker-end="" d="M829.5,428.5, 939.5,28.5" style="stroke-width: 0.5; stroke-opacity: 1; stroke: rgb(80, 80, 80);"></path><path class="link" marker-end="" d="M829.5,188.5, 939.5,68.5" style="stroke-width: 0.5; stroke-opacity: 1; stroke: rgb(80, 80, 80);"></path><path class="link" marker-end="" d="M829.5,228.5, 939.5,68.5" style="stroke-width: 0.5; stroke-opacity: 1; stroke: rgb(80, 80, 80);"></path><path class="link" marker-end="" d="M829.5,268.5, 939.5,68.5" style="stroke-width: 0.5; stroke-opacity: 1; stroke: rgb(80, 80, 80);"></path><path class="link" marker-end="" d="M829.5,308.5, 939.5,68.5" style="stroke-width: 0.5; stroke-opacity: 1; stroke: rgb(80, 80, 80);"></path><path class="link" marker-end="" d="M829.5,348.5, 939.5,68.5" style="stroke-width: 0.5; stroke-opacity: 1; stroke: rgb(80, 80, 80);"></path><path class="link" marker-end="" d="M829.5,388.5, 939.5,68.5" style="stroke-width: 0.5; stroke-opacity: 1; stroke: rgb(80, 80, 80);"></path><path class="link" marker-end="" d="M829.5,428.5, 939.5,68.5" style="stroke-width: 0.5; stroke-opacity: 1; stroke: rgb(80, 80, 80);"></path><path class="link" marker-end="" d="M829.5,188.5, 939.5,108.5" style="stroke-width: 0.5; stroke-opacity: 1; stroke: rgb(80, 80, 80);"></path><path class="link" marker-end="" d="M829.5,228.5, 939.5,108.5" style="stroke-width: 0.5; stroke-opacity: 1; stroke: rgb(80, 80, 80);"></path><path class="link" marker-end="" d="M829.5,268.5, 939.5,108.5" style="stroke-width: 0.5; stroke-opacity: 1; stroke: rgb(80, 80, 80);"></path><path class="link" marker-end="" d="M829.5,308.5, 939.5,108.5" style="stroke-width: 0.5; stroke-opacity: 1; stroke: rgb(80, 80, 80);"></path><path class="link" marker-end="" d="M829.5,348.5, 939.5,108.5" style="stroke-width: 0.5; stroke-opacity: 1; stroke: rgb(80, 80, 80);"></path><path class="link" marker-end="" d="M829.5,388.5, 939.5,108.5" style="stroke-width: 0.5; stroke-opacity: 1; stroke: rgb(80, 80, 80);"></path><path class="link" marker-end="" d="M829.5,428.5, 939.5,108.5" style="stroke-width: 0.5; stroke-opacity: 1; stroke: rgb(80, 80, 80);"></path><path class="link" marker-end="" d="M829.5,188.5, 939.5,148.5" style="stroke-width: 0.5; stroke-opacity: 1; stroke: rgb(80, 80, 80);"></path><path class="link" marker-end="" d="M829.5,188.5, 939.5,188.5" style="stroke-width: 0.5; stroke-opacity: 1; stroke: rgb(80, 80, 80);"></path><path class="link" marker-end="" d="M829.5,188.5, 939.5,228.5" style="stroke-width: 0.5; stroke-opacity: 1; stroke: rgb(80, 80, 80);"></path><path class="link" marker-end="" d="M829.5,188.5, 939.5,268.5" style="stroke-width: 0.5; stroke-opacity: 1; stroke: rgb(80, 80, 80);"></path><path class="link" marker-end="" d="M829.5,188.5, 939.5,308.5" style="stroke-width: 0.5; stroke-opacity: 1; stroke: rgb(80, 80, 80);"></path><path class="link" marker-end="" d="M829.5,188.5, 939.5,348.5" style="stroke-width: 0.5; stroke-opacity: 1; stroke: rgb(80, 80, 80);"></path><path class="link" marker-end="" d="M829.5,188.5, 939.5,388.5" style="stroke-width: 0.5; stroke-opacity: 1; stroke: rgb(80, 80, 80);"></path><path class="link" marker-end="" d="M829.5,188.5, 939.5,428.5" style="stroke-width: 0.5; stroke-opacity: 1; stroke: rgb(80, 80, 80);"></path><path class="link" marker-end="" d="M829.5,188.5, 939.5,468.5" style="stroke-width: 0.5; stroke-opacity: 1; stroke: rgb(80, 80, 80);"></path><path class="link" marker-end="" d="M829.5,188.5, 939.5,508.5" style="stroke-width: 0.5; stroke-opacity: 1; stroke: rgb(80, 80, 80);"></path><path class="link" marker-end="" d="M829.5,188.5, 939.5,548.5" style="stroke-width: 0.5; stroke-opacity: 1; stroke: rgb(80, 80, 80);"></path><path class="link" marker-end="" d="M829.5,228.5, 939.5,148.5" style="stroke-width: 0.5; stroke-opacity: 1; stroke: rgb(80, 80, 80);"></path><path class="link" marker-end="" d="M829.5,228.5, 939.5,188.5" style="stroke-width: 0.5; stroke-opacity: 1; stroke: rgb(80, 80, 80);"></path><path class="link" marker-end="" d="M829.5,228.5, 939.5,228.5" style="stroke-width: 0.5; stroke-opacity: 1; stroke: rgb(80, 80, 80);"></path><path class="link" marker-end="" d="M829.5,228.5, 939.5,268.5" style="stroke-width: 0.5; stroke-opacity: 1; stroke: rgb(80, 80, 80);"></path><path class="link" marker-end="" d="M829.5,228.5, 939.5,308.5" style="stroke-width: 0.5; stroke-opacity: 1; stroke: rgb(80, 80, 80);"></path><path class="link" marker-end="" d="M829.5,228.5, 939.5,348.5" style="stroke-width: 0.5; stroke-opacity: 1; stroke: rgb(80, 80, 80);"></path><path class="link" marker-end="" d="M829.5,228.5, 939.5,388.5" style="stroke-width: 0.5; stroke-opacity: 1; stroke: rgb(80, 80, 80);"></path><path class="link" marker-end="" d="M829.5,228.5, 939.5,428.5" style="stroke-width: 0.5; stroke-opacity: 1; stroke: rgb(80, 80, 80);"></path><path class="link" marker-end="" d="M829.5,228.5, 939.5,468.5" style="stroke-width: 0.5; stroke-opacity: 1; stroke: rgb(80, 80, 80);"></path><path class="link" marker-end="" d="M829.5,228.5, 939.5,508.5" style="stroke-width: 0.5; stroke-opacity: 1; stroke: rgb(80, 80, 80);"></path><path class="link" marker-end="" d="M829.5,228.5, 939.5,548.5" style="stroke-width: 0.5; stroke-opacity: 1; stroke: rgb(80, 80, 80);"></path><path class="link" marker-end="" d="M829.5,268.5, 939.5,148.5" style="stroke-width: 0.5; stroke-opacity: 1; stroke: rgb(80, 80, 80);"></path><path class="link" marker-end="" d="M829.5,268.5, 939.5,188.5" style="stroke-width: 0.5; stroke-opacity: 1; stroke: rgb(80, 80, 80);"></path><path class="link" marker-end="" d="M829.5,268.5, 939.5,228.5" style="stroke-width: 0.5; stroke-opacity: 1; stroke: rgb(80, 80, 80);"></path><path class="link" marker-end="" d="M829.5,268.5, 939.5,268.5" style="stroke-width: 0.5; stroke-opacity: 1; stroke: rgb(80, 80, 80);"></path><path class="link" marker-end="" d="M829.5,268.5, 939.5,308.5" style="stroke-width: 0.5; stroke-opacity: 1; stroke: rgb(80, 80, 80);"></path><path class="link" marker-end="" d="M829.5,268.5, 939.5,348.5" style="stroke-width: 0.5; stroke-opacity: 1; stroke: rgb(80, 80, 80);"></path><path class="link" marker-end="" d="M829.5,268.5, 939.5,388.5" style="stroke-width: 0.5; stroke-opacity: 1; stroke: rgb(80, 80, 80);"></path><path class="link" marker-end="" d="M829.5,268.5, 939.5,428.5" style="stroke-width: 0.5; stroke-opacity: 1; stroke: rgb(80, 80, 80);"></path><path class="link" marker-end="" d="M829.5,268.5, 939.5,468.5" style="stroke-width: 0.5; stroke-opacity: 1; stroke: rgb(80, 80, 80);"></path><path class="link" marker-end="" d="M829.5,268.5, 939.5,508.5" style="stroke-width: 0.5; stroke-opacity: 1; stroke: rgb(80, 80, 80);"></path><path class="link" marker-end="" d="M829.5,268.5, 939.5,548.5" style="stroke-width: 0.5; stroke-opacity: 1; stroke: rgb(80, 80, 80);"></path><path class="link" marker-end="" d="M829.5,308.5, 939.5,148.5" style="stroke-width: 0.5; stroke-opacity: 1; stroke: rgb(80, 80, 80);"></path><path class="link" marker-end="" d="M829.5,308.5, 939.5,188.5" style="stroke-width: 0.5; stroke-opacity: 1; stroke: rgb(80, 80, 80);"></path><path class="link" marker-end="" d="M829.5,308.5, 939.5,228.5" style="stroke-width: 0.5; stroke-opacity: 1; stroke: rgb(80, 80, 80);"></path><path class="link" marker-end="" d="M829.5,308.5, 939.5,268.5" style="stroke-width: 0.5; stroke-opacity: 1; stroke: rgb(80, 80, 80);"></path><path class="link" marker-end="" d="M829.5,308.5, 939.5,308.5" style="stroke-width: 0.5; stroke-opacity: 1; stroke: rgb(80, 80, 80);"></path><path class="link" marker-end="" d="M829.5,308.5, 939.5,348.5" style="stroke-width: 0.5; stroke-opacity: 1; stroke: rgb(80, 80, 80);"></path><path class="link" marker-end="" d="M829.5,308.5, 939.5,388.5" style="stroke-width: 0.5; stroke-opacity: 1; stroke: rgb(80, 80, 80);"></path><path class="link" marker-end="" d="M829.5,308.5, 939.5,428.5" style="stroke-width: 0.5; stroke-opacity: 1; stroke: rgb(80, 80, 80);"></path><path class="link" marker-end="" d="M829.5,308.5, 939.5,468.5" style="stroke-width: 0.5; stroke-opacity: 1; stroke: rgb(80, 80, 80);"></path><path class="link" marker-end="" d="M829.5,308.5, 939.5,508.5" style="stroke-width: 0.5; stroke-opacity: 1; stroke: rgb(80, 80, 80);"></path><path class="link" marker-end="" d="M829.5,308.5, 939.5,548.5" style="stroke-width: 0.5; stroke-opacity: 1; stroke: rgb(80, 80, 80);"></path><path class="link" marker-end="" d="M829.5,348.5, 939.5,148.5" style="stroke-width: 0.5; stroke-opacity: 1; stroke: rgb(80, 80, 80);"></path><path class="link" marker-end="" d="M829.5,348.5, 939.5,188.5" style="stroke-width: 0.5; stroke-opacity: 1; stroke: rgb(80, 80, 80);"></path><path class="link" marker-end="" d="M829.5,348.5, 939.5,228.5" style="stroke-width: 0.5; stroke-opacity: 1; stroke: rgb(80, 80, 80);"></path><path class="link" marker-end="" d="M829.5,348.5, 939.5,268.5" style="stroke-width: 0.5; stroke-opacity: 1; stroke: rgb(80, 80, 80);"></path><path class="link" marker-end="" d="M829.5,348.5, 939.5,308.5" style="stroke-width: 0.5; stroke-opacity: 1; stroke: rgb(80, 80, 80);"></path><path class="link" marker-end="" d="M829.5,348.5, 939.5,348.5" style="stroke-width: 0.5; stroke-opacity: 1; stroke: rgb(80, 80, 80);"></path><path class="link" marker-end="" d="M829.5,348.5, 939.5,388.5" style="stroke-width: 0.5; stroke-opacity: 1; stroke: rgb(80, 80, 80);"></path><path class="link" marker-end="" d="M829.5,348.5, 939.5,428.5" style="stroke-width: 0.5; stroke-opacity: 1; stroke: rgb(80, 80, 80);"></path><path class="link" marker-end="" d="M829.5,348.5, 939.5,468.5" style="stroke-width: 0.5; stroke-opacity: 1; stroke: rgb(80, 80, 80);"></path><path class="link" marker-end="" d="M829.5,348.5, 939.5,508.5" style="stroke-width: 0.5; stroke-opacity: 1; stroke: rgb(80, 80, 80);"></path><path class="link" marker-end="" d="M829.5,348.5, 939.5,548.5" style="stroke-width: 0.5; stroke-opacity: 1; stroke: rgb(80, 80, 80);"></path><path class="link" marker-end="" d="M829.5,388.5, 939.5,148.5" style="stroke-width: 0.5; stroke-opacity: 1; stroke: rgb(80, 80, 80);"></path><path class="link" marker-end="" d="M829.5,388.5, 939.5,188.5" style="stroke-width: 0.5; stroke-opacity: 1; stroke: rgb(80, 80, 80);"></path><path class="link" marker-end="" d="M829.5,388.5, 939.5,228.5" style="stroke-width: 0.5; stroke-opacity: 1; stroke: rgb(80, 80, 80);"></path><path class="link" marker-end="" d="M829.5,388.5, 939.5,268.5" style="stroke-width: 0.5; stroke-opacity: 1; stroke: rgb(80, 80, 80);"></path><path class="link" marker-end="" d="M829.5,388.5, 939.5,308.5" style="stroke-width: 0.5; stroke-opacity: 1; stroke: rgb(80, 80, 80);"></path><path class="link" marker-end="" d="M829.5,388.5, 939.5,348.5" style="stroke-width: 0.5; stroke-opacity: 1; stroke: rgb(80, 80, 80);"></path><path class="link" marker-end="" d="M829.5,388.5, 939.5,388.5" style="stroke-width: 0.5; stroke-opacity: 1; stroke: rgb(80, 80, 80);"></path><path class="link" marker-end="" d="M829.5,388.5, 939.5,428.5" style="stroke-width: 0.5; stroke-opacity: 1; stroke: rgb(80, 80, 80);"></path><path class="link" marker-end="" d="M829.5,388.5, 939.5,468.5" style="stroke-width: 0.5; stroke-opacity: 1; stroke: rgb(80, 80, 80);"></path><path class="link" marker-end="" d="M829.5,388.5, 939.5,508.5" style="stroke-width: 0.5; stroke-opacity: 1; stroke: rgb(80, 80, 80);"></path><path class="link" marker-end="" d="M829.5,388.5, 939.5,548.5" style="stroke-width: 0.5; stroke-opacity: 1; stroke: rgb(80, 80, 80);"></path><path class="link" marker-end="" d="M829.5,428.5, 939.5,148.5" style="stroke-width: 0.5; stroke-opacity: 1; stroke: rgb(80, 80, 80);"></path><path class="link" marker-end="" d="M829.5,428.5, 939.5,188.5" style="stroke-width: 0.5; stroke-opacity: 1; stroke: rgb(80, 80, 80);"></path><path class="link" marker-end="" d="M829.5,428.5, 939.5,228.5" style="stroke-width: 0.5; stroke-opacity: 1; stroke: rgb(80, 80, 80);"></path><path class="link" marker-end="" d="M829.5,428.5, 939.5,268.5" style="stroke-width: 0.5; stroke-opacity: 1; stroke: rgb(80, 80, 80);"></path><path class="link" marker-end="" d="M829.5,428.5, 939.5,308.5" style="stroke-width: 0.5; stroke-opacity: 1; stroke: rgb(80, 80, 80);"></path><path class="link" marker-end="" d="M829.5,428.5, 939.5,348.5" style="stroke-width: 0.5; stroke-opacity: 1; stroke: rgb(80, 80, 80);"></path><path class="link" marker-end="" d="M829.5,428.5, 939.5,388.5" style="stroke-width: 0.5; stroke-opacity: 1; stroke: rgb(80, 80, 80);"></path><path class="link" marker-end="" d="M829.5,428.5, 939.5,428.5" style="stroke-width: 0.5; stroke-opacity: 1; stroke: rgb(80, 80, 80);"></path><path class="link" marker-end="" d="M829.5,428.5, 939.5,468.5" style="stroke-width: 0.5; stroke-opacity: 1; stroke: rgb(80, 80, 80);"></path><path class="link" marker-end="" d="M829.5,428.5, 939.5,508.5" style="stroke-width: 0.5; stroke-opacity: 1; stroke: rgb(80, 80, 80);"></path><path class="link" marker-end="" d="M829.5,428.5, 939.5,548.5" style="stroke-width: 0.5; stroke-opacity: 1; stroke: rgb(80, 80, 80);"></path><path class="link" marker-end="" d="M829.5,188.5, 939.5,588.5" style="stroke-width: 0.5; stroke-opacity: 1; stroke: rgb(80, 80, 80);"></path><path class="link" marker-end="" d="M829.5,228.5, 939.5,588.5" style="stroke-width: 0.5; stroke-opacity: 1; stroke: rgb(80, 80, 80);"></path><path class="link" marker-end="" d="M829.5,268.5, 939.5,588.5" style="stroke-width: 0.5; stroke-opacity: 1; stroke: rgb(80, 80, 80);"></path><path class="link" marker-end="" d="M829.5,308.5, 939.5,588.5" style="stroke-width: 0.5; stroke-opacity: 1; stroke: rgb(80, 80, 80);"></path><path class="link" marker-end="" d="M829.5,348.5, 939.5,588.5" style="stroke-width: 0.5; stroke-opacity: 1; stroke: rgb(80, 80, 80);"></path><path class="link" marker-end="" d="M829.5,388.5, 939.5,588.5" style="stroke-width: 0.5; stroke-opacity: 1; stroke: rgb(80, 80, 80);"></path><path class="link" marker-end="" d="M829.5,428.5, 939.5,588.5" style="stroke-width: 0.5; stroke-opacity: 1; stroke: rgb(80, 80, 80);"></path><path class="link" marker-end="" d="M499.5,548.5, 609.5,191.5" style="stroke-width: 0.5; stroke-opacity: 1; stroke: rgb(80, 80, 80);"></path><path class="link" marker-end="" d="M499.5,548.5, 609.5,230.5" style="stroke-width: 0.5; stroke-opacity: 1; stroke: rgb(80, 80, 80);"></path><path class="link" marker-end="" d="M499.5,548.5, 609.5,269.5" style="stroke-width: 0.5; stroke-opacity: 1; stroke: rgb(80, 80, 80);"></path><path class="link" marker-end="" d="M499.5,548.5, 609.5,308.5" style="stroke-width: 0.5; stroke-opacity: 1; stroke: rgb(80, 80, 80);"></path><path class="link" marker-end="" d="M499.5,548.5, 609.5,347.5" style="stroke-width: 0.5; stroke-opacity: 1; stroke: rgb(80, 80, 80);"></path><path class="link" marker-end="" d="M499.5,548.5, 609.5,386.5" style="stroke-width: 0.5; stroke-opacity: 1; stroke: rgb(80, 80, 80);"></path><path class="link" marker-end="" d="M499.5,548.5, 609.5,425.5" style="stroke-width: 0.5; stroke-opacity: 1; stroke: rgb(80, 80, 80);"></path><path class="link" marker-end="" d="M499.5,588.5, 609.5,191.5" style="stroke-width: 0.5; stroke-opacity: 1; stroke: rgb(80, 80, 80);"></path><path class="link" marker-end="" d="M499.5,588.5, 609.5,230.5" style="stroke-width: 0.5; stroke-opacity: 1; stroke: rgb(80, 80, 80);"></path><path class="link" marker-end="" d="M499.5,588.5, 609.5,269.5" style="stroke-width: 0.5; stroke-opacity: 1; stroke: rgb(80, 80, 80);"></path><path class="link" marker-end="" d="M499.5,588.5, 609.5,308.5" style="stroke-width: 0.5; stroke-opacity: 1; stroke: rgb(80, 80, 80);"></path><path class="link" marker-end="" d="M499.5,588.5, 609.5,347.5" style="stroke-width: 0.5; stroke-opacity: 1; stroke: rgb(80, 80, 80);"></path><path class="link" marker-end="" d="M499.5,588.5, 609.5,386.5" style="stroke-width: 0.5; stroke-opacity: 1; stroke: rgb(80, 80, 80);"></path><path class="link" marker-end="" d="M499.5,588.5, 609.5,425.5" style="stroke-width: 0.5; stroke-opacity: 1; stroke: rgb(80, 80, 80);"></path><circle r="10" class="node" id="0_0" cx="499.5" cy="28.5" style="fill: rgb(188, 108, 108); stroke: rgb(51, 51, 51);"></circle><circle r="10" class="node" id="0_1" cx="499.5" cy="68.5" style="fill: rgb(188, 108, 108); stroke: rgb(51, 51, 51);"></circle><circle r="10" class="node" id="0_2" cx="499.5" cy="108.5" style="fill: rgb(188, 108, 108); stroke: rgb(51, 51, 51);"></circle><circle r="10" class="node" id="0_3" cx="499.5" cy="148.5" style="fill: rgb(188, 108, 108); stroke: rgb(51, 51, 51);"></circle><circle r="10" class="node" id="0_4" cx="499.5" cy="188.5" style="fill: rgb(188, 108, 108); stroke: rgb(51, 51, 51);"></circle><circle r="10" class="node" id="0_5" cx="499.5" cy="228.5" style="fill: rgb(188, 108, 108); stroke: rgb(51, 51, 51);"></circle><circle r="10" class="node" id="0_6" cx="499.5" cy="268.5" style="fill: rgb(188, 108, 108); stroke: rgb(51, 51, 51);"></circle><circle r="10" class="node" id="0_7" cx="499.5" cy="308.5" style="fill: rgb(188, 108, 108); stroke: rgb(51, 51, 51);"></circle><circle r="10" class="node" id="0_8" cx="499.5" cy="348.5" style="fill: rgb(188, 108, 108); stroke: rgb(51, 51, 51);"></circle><circle r="10" class="node" id="0_9" cx="499.5" cy="388.5" style="fill: rgb(188, 108, 108); stroke: rgb(51, 51, 51);"></circle><circle r="10" class="node" id="0_10" cx="499.5" cy="428.5" style="fill: rgb(188, 108, 108); stroke: rgb(51, 51, 51);"></circle><circle r="10" class="node" id="0_11" cx="499.5" cy="468.5" style="fill: rgb(188, 108, 108); stroke: rgb(51, 51, 51);"></circle><circle r="10" class="node" id="0_12" cx="499.5" cy="508.5" style="fill: rgb(188, 108, 108); stroke: rgb(51, 51, 51);"></circle><circle r="10" class="node" id="0_13" cx="499.5" cy="548.5" style="fill: rgb(188, 108, 108); stroke: rgb(51, 51, 51);"></circle><circle r="10" class="node" id="0_14" cx="499.5" cy="588.5" style="fill: rgb(188, 108, 108); stroke: rgb(51, 51, 51);"></circle><circle r="10" class="node" id="1_0" cx="609.5" cy="191.5" style="fill: rgb(188, 108, 108); stroke: rgb(51, 51, 51);"></circle><circle r="10" class="node" id="1_1" cx="609.5" cy="230.5" style="fill: rgb(188, 108, 108); stroke: rgb(51, 51, 51);"></circle><circle r="10" class="node" id="1_2" cx="609.5" cy="269.5" style="fill: rgb(188, 108, 108); stroke: rgb(51, 51, 51);"></circle><circle r="10" class="node" id="1_3" cx="609.5" cy="308.5" style="fill: rgb(188, 108, 108); stroke: rgb(51, 51, 51);"></circle><circle r="10" class="node" id="1_4" cx="609.5" cy="347.5" style="fill: rgb(188, 108, 108); stroke: rgb(51, 51, 51);"></circle><circle r="10" class="node" id="1_5" cx="609.5" cy="386.5" style="fill: rgb(188, 108, 108); stroke: rgb(51, 51, 51);"></circle><circle r="10" class="node" id="1_6" cx="609.5" cy="425.5" style="fill: rgb(188, 108, 108); stroke: rgb(51, 51, 51);"></circle><circle r="10" class="node" id="2_0" cx="719.5" cy="288.5" style="fill: rgb(188, 108, 108); stroke: rgb(51, 51, 51);"></circle><circle r="10" class="node" id="2_1" cx="719.5" cy="328.5" style="fill: rgb(188, 108, 108); stroke: rgb(51, 51, 51);"></circle><circle r="10" class="node" id="3_0" cx="829.5" cy="188.5" style="fill: rgb(188, 108, 108); stroke: rgb(51, 51, 51);"></circle><text class="text" dy=".35em" x="464.5" y="628.5" style="font-size: 12px;"></text><text class="text" dy=".35em" x="574.5" y="628.5" style="font-size: 12px;"></text><text class="text" dy=".35em" x="684.5" y="628.5" style="font-size: 12px;"></text><text class="text" dy=".35em" x="794.5" y="628.5" style="font-size: 12px;"></text><circle r="10" class="node" id="3_1" cx="829.5" cy="228.5" style="fill: rgb(188, 108, 108); stroke: rgb(51, 51, 51);"></circle><circle r="10" class="node" id="3_2" cx="829.5" cy="268.5" style="fill: rgb(188, 108, 108); stroke: rgb(51, 51, 51);"></circle><circle r="10" class="node" id="3_3" cx="829.5" cy="308.5" style="fill: rgb(188, 108, 108); stroke: rgb(51, 51, 51);"></circle><circle r="10" class="node" id="3_4" cx="829.5" cy="348.5" style="fill: rgb(188, 108, 108); stroke: rgb(51, 51, 51);"></circle><circle r="10" class="node" id="3_5" cx="829.5" cy="388.5" style="fill: rgb(188, 108, 108); stroke: rgb(51, 51, 51);"></circle><circle r="10" class="node" id="3_6" cx="829.5" cy="428.5" style="fill: rgb(188, 108, 108); stroke: rgb(51, 51, 51);"></circle><circle r="10" class="node" id="4_0" cx="939.5" cy="28.5" style="fill: rgb(188, 108, 108); stroke: rgb(51, 51, 51);"></circle><text class="text" dy=".35em" x="904.5" y="628.5" style="font-size: 12px;"></text><circle r="10" class="node" id="4_1" cx="939.5" cy="68.5" style="fill: rgb(188, 108, 108); stroke: rgb(51, 51, 51);"></circle><circle r="10" class="node" id="4_2" cx="939.5" cy="108.5" style="fill: rgb(188, 108, 108); stroke: rgb(51, 51, 51);"></circle><circle r="10" class="node" id="4_3" cx="939.5" cy="148.5" style="fill: rgb(188, 108, 108); stroke: rgb(51, 51, 51);"></circle><circle r="10" class="node" id="4_4" cx="939.5" cy="188.5" style="fill: rgb(188, 108, 108); stroke: rgb(51, 51, 51);"></circle><circle r="10" class="node" id="4_5" cx="939.5" cy="228.5" style="fill: rgb(188, 108, 108); stroke: rgb(51, 51, 51);"></circle><circle r="10" class="node" id="4_6" cx="939.5" cy="268.5" style="fill: rgb(188, 108, 108); stroke: rgb(51, 51, 51);"></circle><circle r="10" class="node" id="4_7" cx="939.5" cy="308.5" style="fill: rgb(188, 108, 108); stroke: rgb(51, 51, 51);"></circle><circle r="10" class="node" id="4_8" cx="939.5" cy="348.5" style="fill: rgb(188, 108, 108); stroke: rgb(51, 51, 51);"></circle><circle r="10" class="node" id="4_9" cx="939.5" cy="388.5" style="fill: rgb(188, 108, 108); stroke: rgb(51, 51, 51);"></circle><circle r="10" class="node" id="4_10" cx="939.5" cy="428.5" style="fill: rgb(188, 108, 108); stroke: rgb(51, 51, 51);"></circle><circle r="10" class="node" id="4_11" cx="939.5" cy="468.5" style="fill: rgb(188, 108, 108); stroke: rgb(51, 51, 51);"></circle><circle r="10" class="node" id="4_12" cx="939.5" cy="508.5" style="fill: rgb(188, 108, 108); stroke: rgb(51, 51, 51);"></circle><circle r="10" class="node" id="4_13" cx="939.5" cy="548.5" style="fill: rgb(188, 108, 108); stroke: rgb(51, 51, 51);"></circle><circle r="10" class="node" id="4_14" cx="939.5" cy="588.5" style="fill: rgb(188, 108, 108); stroke: rgb(51, 51, 51);"></circle></g><defs><marker id="arrow" viewBox="0 -5 10 10" markerWidth="7" markerHeight="7" orient="auto" refX="40"><path d="M0,-5L10,0L0,5" style="stroke: rgb(80, 80, 80); fill: none;"></path></marker></defs></svg>